<svg xmlns="http://www.w3.org/2000/svg" width="748" height="667.139" viewBox="0 0 748 667.139">
    <g id="Developer-concept" transform="translate(0 -0.01)">
        <g id="Background_Complete" data-name="Background Complete" transform="translate(27.391 0.01)">
            <rect id="Rectángulo_7" data-name="Rectángulo 7" width="88.056" height="242.023"
                transform="translate(687.47 562.919) rotate(180)" fill="#f0f0f0" />
            <rect id="Rectángulo_8" data-name="Rectángulo 8" width="455.632" height="17.11"
                transform="translate(670.554 580.029) rotate(180)" fill="#f0f0f0" />
            <rect id="Rectángulo_9" data-name="Rectángulo 9" width="401.391" height="242.023"
                transform="translate(198.024 320.897)" fill="#f5f5f5" />
            <rect id="Rectángulo_10" data-name="Rectángulo 10" width="402.934" height="88.596"
                transform="translate(198.024 337.273)" fill="#f0f0f0" />
            <rect id="Rectángulo_11" data-name="Rectángulo 11" width="402.934" height="88.596"
                transform="translate(198.024 442.014)" fill="#f0f0f0" />
            <rect id="Rectángulo_12" data-name="Rectángulo 12" width="15.239" height="88.596"
                transform="translate(614.653 425.85) rotate(180)" fill="#e6e6e6" />
            <rect id="Rectángulo_13" data-name="Rectángulo 13" width="15.239" height="88.596"
                transform="translate(614.653 530.61) rotate(180)" fill="#e6e6e6" />
            <rect id="Rectángulo_14" data-name="Rectángulo 14" width="413.119" height="14.891"
                transform="translate(599.415 320.897) rotate(180)" fill="#f0f0f0" />
            <rect id="Rectángulo_15" data-name="Rectángulo 15" width="100.362" height="14.891"
                transform="translate(599.415 306.005)" fill="#e6e6e6" />
            <rect id="Rectángulo_16" data-name="Rectángulo 16" width="207.225" height="260.483"
                transform="translate(704.58 260.483) rotate(180)" fill="#f0f0f0" />
            <rect id="Rectángulo_17" data-name="Rectángulo 17" width="245.032" height="260.483"
                transform="translate(696.613 260.483) rotate(180)" fill="#f5f5f5" />
            <rect id="Rectángulo_18" data-name="Rectángulo 18" width="219.435" height="203.984"
                transform="translate(472.125 239.939) rotate(-90)" fill="#fff" />
            <path id="Trazado_2" data-name="Trazado 2"
                d="M379.65,184.418l38.984-18.074V154.983L379.65,136.87v13.618l23.687,10.2L379.65,170.9Z"
                transform="translate(217.045 -30.432)" fill="#e6e6e6" />
            <path id="Trazado_3" data-name="Trazado 3" d="M369.9,134.15H362.78L375.4,192.23h7.1Z"
                transform="translate(201.374 -32.958)" fill="#e6e6e6" />
            <path id="Trazado_4" data-name="Trazado 4"
                d="M375.022,170.9l-23.591-10.2,23.687-10.2V136.87L336,154.983v11.361l38.984,18.074Z"
                transform="translate(176.497 -30.432)" fill="#e6e6e6" />
            <rect id="Rectángulo_19" data-name="Rectángulo 19" width="13.58" height="442.072"
                transform="translate(104.066 580.048) rotate(180)" fill="#f0f0f0" />
            <path id="Trazado_5" data-name="Trazado 5"
                d="M118.517,581.895l-.366-1.929a10.764,10.764,0,0,0,6.423-5.613c3.53-6.25,5.671-19.579-4.147-47.51-15.123-43.054-6.1-77.774,11.9-146.984,3.125-12.056,6.674-25.713,10.358-40.508,13.83-55.3,1.042-89.6-9.24-117.163-7.966-21.392-14.274-38.289-6.211-57.868l1.794.733c-7.716,18.865-1.6,35.454,6.23,56.46,10.378,27.8,23.282,62.42,9.3,118.282-3.684,14.776-7.233,28.432-10.358,40.508-17.9,68.882-26.889,103.448-11.94,146.039,10.088,28.722,7.716,42.61,3.858,49.188A12.5,12.5,0,0,1,118.517,581.895Z"
                transform="translate(-30.866 -4.933)" fill="#f0f0f0" />
            <path id="Trazado_6" data-name="Trazado 6" d="M51.88,304.584h49.168L87.372,296.54H65.556Z"
                transform="translate(20.802 275.445)" fill="#f0f0f0" />
            <path id="Trazado_7" data-name="Trazado 7" d="M14.2,179.437H208.713L187.321,15.98H35.611Z"
                transform="translate(-14.2 14.825)" fill="#f5f5f5" />
            <path id="Trazado_8" data-name="Trazado 8" d="M163.77,114.69H267.624l-13.676,84.8H177.427Z"
                transform="translate(124.74 106.52)" fill="#f0f0f0" />
            <path id="Trazado_9" data-name="Trazado 9"
                d="M283.8,250.587c28.317-10.243,50-25.635,25.732-56.788s-61.861-31-87.207-17.206c-32.29,17.553-25.809,68.381-25.809,68.381S255.483,260.849,283.8,250.587Z"
                transform="translate(46.432 -1.774)" fill="#e0e0e0" />
            <path id="Trazado_10" data-name="Trazado 10"
                d="M267.764,224.731c-21.662-14.756-37.016-31.827-11.882-49.844s56.132-8.777,74.765,7.947c23.745,21.334,10.03,58.774,10.03,58.774S289.406,239.41,267.764,224.731Z"
                transform="translate(89.995 -4.235)" fill="#e6e6e6" />
            <path id="Trazado_11" data-name="Trazado 11"
                d="M269.265,209.01c25.346-1.524,46.6-8.14,34.605-35.589s-42.436-35.145-66.182-30.438c-30.342,6-37.5,43.96-37.5,43.96S243.938,210.553,269.265,209.01Z"
                transform="translate(50.339 -25.955)" fill="#f0f0f0" />
            <path id="Trazado_12" data-name="Trazado 12"
                d="M265.98,194.607c-21.083-6.79-37.614-16.955-21.546-37.576s43.4-20.5,62.5-11.4c24.343,11.574,22.183,45.253,22.183,45.253S287.063,201.378,265.98,194.607Z"
                transform="translate(85.451 -27.735)" fill="#ebebeb" />
            <path id="Trazado_13" data-name="Trazado 13"
                d="M255.511,180.988c21.045,6.944,40.392,8.449,39.524-17.669s-22.974-42.128-43.767-46.1c-26.523-4.938-44.578,23.514-44.578,23.514S234.505,173.986,255.511,180.988Z"
                transform="translate(56.377 -49.223)" fill="#f5f5f5" />
            <path id="Trazado_14" data-name="Trazado 14"
                d="M271.35,164.089c-15.065,1.042-28.085-1.235-23.147-18.344s22.3-23.919,36.65-22.974c18.325,1.215,25.443,23.147,25.443,23.147S286.4,163.067,271.35,164.089Z"
                transform="translate(93.951 -43.608)" fill="#fafafa" />
        </g>
        <g id="Shadow" transform="translate(0 623.478)">
            <ellipse id="_Path_" data-name="&lt;Path&gt;" cx="374" cy="21.835" rx="374" ry="21.835" fill="#f5f5f5" />
        </g>
        <g id="Desk" transform="translate(45.137 50.104)">
            <rect id="Rectángulo_20" data-name="Rectángulo 20" width="655.354" height="23.514"
                transform="translate(0 276.647)" fill="#5dc98c" />
            <rect id="Rectángulo_21" data-name="Rectángulo 21" width="175.397" height="23.514"
                transform="translate(0 276.647)" fill="#fff" opacity="0.3" />
            <path id="Trazado_15" data-name="Trazado 15" d="M123.128,181.59H107.87l7.986,294.7H130.4l7.986-294.7Z"
                transform="translate(55.067 118.571)" fill="#5dc98c" />
            <path id="Trazado_16" data-name="Trazado 16" d="M115.735,473.236h7.272V184.88L108,187.619Z"
                transform="translate(55.187 121.627)" fill="#fff" opacity="0.3" />
            <path id="Trazado_17" data-name="Trazado 17" d="M48.167,181.59H32.89l8.005,294.7H55.439l7.986-294.7Z"
                transform="translate(-14.584 118.571)" fill="#5dc98c" />
            <path id="Trazado_18" data-name="Trazado 18" d="M40.774,473.236h7.272V184.88L33.02,187.619Z"
                transform="translate(-14.464 121.627)" fill="#fff" opacity="0.3" />
            <path id="Trazado_19" data-name="Trazado 19" d="M353.088,181.59H337.83l7.986,294.7H360.36l8.005-294.7Z"
                transform="translate(268.683 118.571)" fill="#5dc98c" />
            <path id="Trazado_20" data-name="Trazado 20" d="M345.695,473.236h7.272V184.88l-15.007,2.739Z"
                transform="translate(268.804 121.627)" fill="#fff" opacity="0.3" />
            <path id="Trazado_21" data-name="Trazado 21" d="M278.118,181.59H262.86l7.986,294.7H285.39l7.986-294.7Z"
                transform="translate(199.041 118.571)" fill="#5dc98c" />
            <path id="Trazado_22" data-name="Trazado 22" d="M270.734,473.236h7.272V184.88l-15.026,2.739Z"
                transform="translate(199.153 121.627)" fill="#fff" opacity="0.3" />
            <path id="Trazado_23" data-name="Trazado 23"
                d="M319.836,185.833H164.017a8.024,8.024,0,0,0-8.044,10.185l20.755,99.05a13.252,13.252,0,0,0,12.307,10.165H344.97a8.024,8.024,0,0,0,8.044-10.165l-20.775-99.051A13.252,13.252,0,0,0,319.836,185.833Z"
                transform="translate(-8.758 -35.049)" fill="#263238" />
            <path id="Trazado_24" data-name="Trazado 24"
                d="M187.754,298.383a9.24,9.24,0,0,1-8.333-6.944l-20.755-99.05a4.533,4.533,0,0,1,.714-3.858,4.186,4.186,0,0,1,3.337-1.408H318.651a9.24,9.24,0,0,1,8.333,6.944l20.755,99.05a4.533,4.533,0,0,1-.714,3.858,4.128,4.128,0,0,1-3.337,1.408Z"
                transform="translate(-6.126 -33.85)" fill="#fff" />
            <path id="Trazado_25" data-name="Trazado 25"
                d="M244.171,288.14,224.5,194.22a3.858,3.858,0,0,1,3.742-4.61h25.308a3.858,3.858,0,0,1,3.742,3.048L276.963,286.5a3.858,3.858,0,0,1-3.742,4.61H247.913A3.858,3.858,0,0,1,244.171,288.14Z"
                transform="translate(55.103 -31.534)" fill="#beedd1" />
            <path id="Trazado_26" data-name="Trazado 26" d="M109.619,114.15l-.849-4.07h31.249l.849,4.07Z"
                transform="translate(55.903 52.143)" fill="#5dc98c" />
            <path id="Trazado_27" data-name="Trazado 27" d="M117.1,119.38l-.849-4.07h54.762l.868,4.07Z"
                transform="translate(62.851 57.001)" fill="#ebebeb" />
            <path id="Trazado_28" data-name="Trazado 28" d="M118.589,124.62l-.849-4.07h61.4l.849,4.07Z"
                transform="translate(64.235 61.869)" fill="#ebebeb" />
            <path id="Trazado_29" data-name="Trazado 29" d="M120.089,129.85l-.849-4.07h49.419l.868,4.07Z"
                transform="translate(65.629 66.727)" fill="#ebebeb" />
            <path id="Trazado_30" data-name="Trazado 30" d="M114.539,138.35l-.849-4.07h19.772l.849,4.07Z"
                transform="translate(60.473 74.623)" fill="#5dc98c" />
            <path id="Trazado_31" data-name="Trazado 31" d="M122.019,143.58l-.849-4.07h24.073l.868,4.07Z"
                transform="translate(67.421 79.481)" fill="#ebebeb" />
            <path id="Trazado_32" data-name="Trazado 32" d="M137.508,143.58l-.868-4.07h24.092l.849,4.07Z"
                transform="translate(81.792 79.481)" fill="#ebebeb" />
            <path id="Trazado_33" data-name="Trazado 33" d="M123.528,148.81l-.868-4.07h81.42l.849,4.07Z"
                transform="translate(68.805 84.34)" fill="#ebebeb" />
            <path id="Trazado_34" data-name="Trazado 34" d="M125.009,154.05l-.849-4.07h62.073l.849,4.07Z"
                transform="translate(70.199 89.207)" fill="#ebebeb" />
            <path id="Trazado_35" data-name="Trazado 35"
                d="M381.3,247.42H176.14c-5.594,0-9.22,3.183-8.044,7.079H393.608C392.45,250.6,386.9,247.42,381.3,247.42Z"
                transform="translate(2.575 22.167)" fill="#263238" />
            <path id="Trazado_36" data-name="Trazado 36"
                d="M146.728,220.263,127.034,126.4a3.858,3.858,0,0,1,3.742-4.591h159.33a3.858,3.858,0,0,1,3.742,3.028l19.694,93.785a3.858,3.858,0,0,1-3.742,4.61H150.47A3.858,3.858,0,0,1,146.728,220.263Z"
                transform="translate(-35.429 -94.516)" fill="#c5e2d0" />
            <path id="Trazado_37" data-name="Trazado 37" d="M126.93,43.467H93.482L92.73,39.86h33.448Z"
                transform="translate(41.003 -13.086)" fill="#35aa67" />
            <path id="Trazado_38" data-name="Trazado 38" d="M114.468,46.428H101.042l-.752-3.588h13.425Z"
                transform="translate(48.025 -10.318)" fill="#35aa67" opacity="0.4" />
            <path id="Trazado_39" data-name="Trazado 39" d="M129.54,46.428H108.862l-.752-3.588h20.678Z"
                transform="translate(55.29 -10.318)" fill="#35aa67" opacity="0.4" />
            <path id="Trazado_40" data-name="Trazado 40" d="M145.237,49.417H101.662l-.752-3.607h43.574Z"
                transform="translate(48.601 -7.559)" fill="#35aa67" opacity="0.4" />
            <path id="Trazado_41" data-name="Trazado 41" d="M139.125,52.387H102.282l-.752-3.607h36.843Z"
                transform="translate(49.177 -4.8)" fill="#35aa67" opacity="0.4" />
            <path id="Trazado_42" data-name="Trazado 42" d="M144.986,82.27H121.53l.752,3.588h23.456Z"
                transform="translate(67.756 26.309)" fill="#35aa67" opacity="0.4" />
            <path id="Trazado_43" data-name="Trazado 43" d="M135.436,79.917H101.082l-.752-3.607h34.354Z"
                transform="translate(48.062 20.773)" fill="#35aa67" />
            <path id="Trazado_44" data-name="Trazado 44" d="M141.073,85.24H109.13l.752,3.607h31.943Z"
                transform="translate(56.237 29.068)" fill="#35aa67" opacity="0.4" />
            <path id="Trazado_45" data-name="Trazado 45" d="M131.966,82.27H108.51l.752,3.588h23.456Z"
                transform="translate(55.661 26.309)" fill="#35aa67" opacity="0.4" />
            <path id="Trazado_46" data-name="Trazado 46" d="M154.8,79.29H107.89l.752,3.607h46.892Z"
                transform="translate(55.085 23.541)" fill="#35aa67" opacity="0.4" />
            <path id="Trazado_47" data-name="Trazado 47" d="M128.438,29.587H90.592L89.84,25.98h37.846Z"
                transform="translate(38.318 -25.98)" fill="#35aa67" />
            <path id="Trazado_48" data-name="Trazado 48" d="M139.623,34.91H97.9l.752,3.588h41.723Z"
                transform="translate(45.805 -17.685)" fill="#35aa67" opacity="0.4" />
            <path id="Trazado_49" data-name="Trazado 49" d="M131.866,31.93H97.28l.752,3.607H132.6Z"
                transform="translate(45.229 -20.453)" fill="#35aa67" opacity="0.4" />
            <path id="Trazado_50" data-name="Trazado 50" d="M134.737,28.96H96.66l.752,3.588h38.077Z"
                transform="translate(44.653 -23.212)" fill="#35aa67" opacity="0.4" />
            <path id="Trazado_51" data-name="Trazado 51" d="M122.644,57.218H96.352L95.6,53.63h26.291Z"
                transform="translate(43.669 -0.295)" fill="#35aa67" />
            <path id="Trazado_52" data-name="Trazado 52" d="M155.787,62.55H104.4l.752,3.607h51.387Z"
                transform="translate(51.843 7.991)" fill="#35aa67" opacity="0.4" />
            <path id="Trazado_53" data-name="Trazado 53" d="M125.075,59.58h-21.3l.752,3.588h21.3Z"
                transform="translate(51.267 5.232)" fill="#35aa67" opacity="0.4" />
            <path id="Trazado_54" data-name="Trazado 54" d="M137.055,59.58h-21.3l.752,3.588h21.3Z"
                transform="translate(62.396 5.232)" fill="#35aa67" opacity="0.4" />
            <path id="Trazado_55" data-name="Trazado 55" d="M150.052,56.6H103.16l.752,3.607H150.8Z"
                transform="translate(50.691 2.464)" fill="#35aa67" opacity="0.4" />
            <path id="Trazado_56" data-name="Trazado 56" d="M147.1,71.47H106.26l.752,3.607h40.835Z"
                transform="translate(53.571 16.277)" fill="#35aa67" opacity="0.4" />
            <path id="Trazado_57" data-name="Trazado 57" d="M117.522,68.5H105.64l.752,3.588h11.863Z"
                transform="translate(52.995 13.518)" fill="#35aa67" opacity="0.4" />
            <path id="Trazado_58" data-name="Trazado 58" d="M129.6,68.5H112.64l.752,3.588h16.955Z"
                transform="translate(59.498 13.518)" fill="#35aa67" opacity="0.4" />
            <path id="Trazado_59" data-name="Trazado 59" d="M151.932,65.53H105.02l.752,3.588h46.892Z"
                transform="translate(52.419 10.759)" fill="#35aa67" opacity="0.4" />
            <path id="Trazado_60" data-name="Trazado 60" d="M156.943,66.767h-16.8l-.752-3.607h16.8Z"
                transform="translate(84.346 8.558)" fill="#5dc98c" opacity="0.4" />
            <path id="Trazado_61" data-name="Trazado 61" d="M175.819,66.767H149.932l-.752-3.607h25.886Z"
                transform="translate(93.441 8.558)" fill="#5dc98c" opacity="0.4" />
            <path id="Trazado_62" data-name="Trazado 62" d="M195.332,69.728H140.762l-.752-3.588h54.569Z"
                transform="translate(84.922 11.326)" fill="#5dc98c" opacity="0.4" />
            <path id="Trazado_63" data-name="Trazado 63" d="M187.5,72.717H141.382l-.752-3.607h46.121Z"
                transform="translate(85.498 14.085)" fill="#5dc98c" opacity="0.4" />
            <path id="Trazado_64" data-name="Trazado 64" d="M200.8,53.19H148.55L149.3,56.8h52.255Z"
                transform="translate(92.855 -0.704)" fill="#5dc98c" opacity="0.4" />
            <path id="Trazado_65" data-name="Trazado 65" d="M191.215,50.22H147.93l.752,3.588h43.285Z"
                transform="translate(92.279 -3.463)" fill="#5dc98c" opacity="0.4" />
            <path id="Trazado_66" data-name="Trazado 66" d="M189.283,47.24H141.6l.752,3.607h47.683Z"
                transform="translate(86.399 -6.231)" fill="#5dc98c" />
            <path id="Trazado_67" data-name="Trazado 67" d="M207.849,82.88H143.5l.752,3.588H208.6Z"
                transform="translate(88.164 26.876)" fill="#5dc98c" opacity="0.4" />
            <path id="Trazado_68" data-name="Trazado 68" d="M169.538,79.9H142.88l.752,3.607H170.29Z"
                transform="translate(87.588 24.108)" fill="#5dc98c" opacity="0.4" />
            <path id="Trazado_69" data-name="Trazado 69" d="M184.538,79.9H157.88l.752,3.607H185.29Z"
                transform="translate(101.522 24.108)" fill="#5dc98c" opacity="0.4" />
            <path id="Trazado_70" data-name="Trazado 70" d="M200.977,76.93H142.26l.752,3.588h58.717Z"
                transform="translate(87.012 21.349)" fill="#5dc98c" opacity="0.4" />
            <path id="Trazado_71" data-name="Trazado 71" d="M196.477,91.8H145.36l.752,3.607h51.117Z"
                transform="translate(89.892 35.162)" fill="#5dc98c" opacity="0.4" />
            <path id="Trazado_72" data-name="Trazado 72" d="M159.612,88.83H144.74l.752,3.588h14.872Z"
                transform="translate(89.316 32.403)" fill="#5dc98c" opacity="0.4" />
            <path id="Trazado_73" data-name="Trazado 73" d="M174.728,88.83H153.51l.752,3.588H175.48Z"
                transform="translate(97.463 32.403)" fill="#5dc98c" opacity="0.4" />
            <path id="Trazado_74" data-name="Trazado 74" d="M202.837,85.85H144.12l.752,3.607h58.717Z"
                transform="translate(88.74 29.635)" fill="#5dc98c" opacity="0.4" />
            <path id="Trazado_75" data-name="Trazado 75" d="M112.756,94.11H72.75L73.5,97.7h40.006Z"
                transform="translate(22.443 37.308)" fill="#5dc98c" opacity="0.4" />
            <path id="Trazado_76" data-name="Trazado 76" d="M101.488,91.13H72.13l.752,3.607h29.358Z"
                transform="translate(21.867 34.54)" fill="#5dc98c" opacity="0.4" />
            <path id="Trazado_77" data-name="Trazado 77" d="M117.788,91.13H88.43l.752,3.607h29.358Z"
                transform="translate(37.008 34.54)" fill="#5dc98c" opacity="0.4" />
            <path id="Trazado_78" data-name="Trazado 78" d="M130.227,88.16H71.51l.752,3.588h58.717Z"
                transform="translate(21.291 31.781)" fill="#5dc98c" opacity="0.4" />
            <path id="Trazado_79" data-name="Trazado 79" d="M346.767,149.98H322l2.893,37.46h18.981Z"
                transform="translate(253.978 89.207)" fill="#5dc98c" />
            <path id="Trazado_80" data-name="Trazado 80" d="M346.767,149.98H322l2.893,37.46h18.981Z"
                transform="translate(253.978 89.207)" fill="#fff" opacity="0.4" />
            <path id="Trazado_81" data-name="Trazado 81" d="M60.872,136.49H96.48L84.328,199.971H48.72Z"
                transform="translate(0.12 76.676)" fill="#253530" />
            <path id="Trazado_82" data-name="Trazado 82" d="M102.747,127.67H52.46l14.081,80.494h50.287Z"
                transform="translate(3.595 68.483)" fill="#5dc98c" />
            <path id="Trazado_83" data-name="Trazado 83" d="M50.92,127.67h2.971l14.081,80.494H65Z"
                transform="translate(2.164 68.483)" fill="#5dc98c" />
            <path id="Trazado_84" data-name="Trazado 84" d="M50.92,127.67h2.971l14.081,80.494H65Z"
                transform="translate(2.164 68.483)" opacity="0.3" />
            <path id="Trazado_85" data-name="Trazado 85" d="M68.842,195.418,57.77,132.13H90.581l11.072,63.288Z"
                transform="translate(8.527 72.626)" fill="#fff" />
            <path id="Trazado_86" data-name="Trazado 86" d="M85.033,195.418,73.98,132.13h1.543L86.6,195.418Z"
                transform="translate(23.585 72.626)" fill="#43ff9c" opacity="0.6" />
        </g>
        <g id="Character" transform="translate(268.924 84.326)">
            <path id="Trazado_87" data-name="Trazado 87"
                d="M265.731,156.993c.714,1.543.482,3.183-.54,3.646s-2.411-.405-3.125-1.929-.463-3.183.54-3.646S265.017,155.373,265.731,156.993Z"
                transform="translate(-134.094 -97.971)" fill="#263238" />
            <path id="Trazado_88" data-name="Trazado 88"
                d="M264.7,157.58s.617,10.532-1.273,16.627c3.858,1.292,8.024-1.929,8.024-1.929Z"
                transform="translate(-132.449 -95.51)" fill="#ff5652" />
            <path id="Trazado_89" data-name="Trazado 89"
                d="M268.114,150.245a1.022,1.022,0,0,1-.579.231,7.947,7.947,0,0,0-6.346,3.453,1,1,0,1,1-1.736-1,9.915,9.915,0,0,1,7.966-4.456,1,1,0,0,1,.694,1.775Z"
                transform="translate(-136.284 -103.973)" fill="#263238" />
            <path id="Trazado_90" data-name="Trazado 90"
                d="M306.557,154.76c5.96,20.64,12.615,36.65,20.736,45.793,0,0,.154,16.222-27.487,23.938-30.4,8.487-18.749-11.033-18.749-11.033,15.431-8.584,13.965-21.546,2.353-26.484Z"
                transform="translate(-118.113 -98.13)" fill="#ff8b7b" />
            <path id="Trazado_91" data-name="Trazado 91"
                d="M330.856,184.338c-.54-7.542-1.254-16.145-5.9-16.377-5.131-.231-34.836,13.04-41.183,22.395s6.057,18.518,6.057,18.518Z"
                transform="translate(-115.233 -85.869)" fill="#263238" />
            <path id="Trazado_92" data-name="Trazado 92"
                d="M288.145,237.409l-25.655-.849.463,21.488s22.376-2.315,23.359-8.2Z"
                transform="translate(-133.322 -22.143)" fill="#ff8b7b" />
            <path id="Trazado_93" data-name="Trazado 93" d="M200.651,165.431l-2.7,10.995,16.7-.058-.444-21.488Z"
                transform="translate(-85.043 59.537)" fill="#ff8b7b" />
            <path id="Trazado_94" data-name="Trazado 94"
                d="M383.67,192.67l-.54,5.517c-.174,1.775-.405,3.511-.637,5.266-.444,3.491-1,6.983-1.6,10.455-1.157,6.963-2.662,13.888-4.4,20.852a208.02,208.02,0,0,1-6.4,20.967c-1.331,3.53-2.72,7.06-4.379,10.648a88.212,88.212,0,0,1-5.787,10.9,28.541,28.541,0,0,1-1.813,2.778c-.637.849-1.254,1.929-1.929,2.816a28.723,28.723,0,0,1-2.276,2.836l-1.254,1.427a19.394,19.394,0,0,1-1.427,1.5,44,44,0,0,1-13.367,8.97,79.088,79.088,0,0,1-23.977,6.076c-3.761.444-7.484.617-11.13.714s-7.291,0-10.879-.193-7.137-.5-10.667-.926-6.963-.984-10.706-1.736l.617-20.157a309.258,309.258,0,0,0,36.457-8.68,79.924,79.924,0,0,0,7.832-3.009,35.937,35.937,0,0,0,6.211-3.376,8.641,8.641,0,0,0,2.816-2.739l.559-.887a12.6,12.6,0,0,0,.714-1.177,14.573,14.573,0,0,0,.752-1.37c.251-.5.521-.964.772-1.524A101.449,101.449,0,0,0,332.8,243.3c1.582-5.671,3.067-11.574,4.263-17.688s2.353-12.287,3.414-18.518l1.466-9.375,1.331-9.124Z"
                transform="translate(-125.881 -66.695)" fill="#5dc98c" />
            <path id="Trazado_95" data-name="Trazado 95"
                d="M383.67,192.67l-.54,5.517c-.174,1.775-.405,3.511-.637,5.266-.444,3.491-1,6.983-1.6,10.455-1.157,6.963-2.662,13.888-4.4,20.852a208.02,208.02,0,0,1-6.4,20.967c-1.331,3.53-2.72,7.06-4.379,10.648a88.212,88.212,0,0,1-5.787,10.9,28.541,28.541,0,0,1-1.813,2.778c-.637.849-1.254,1.929-1.929,2.816a28.723,28.723,0,0,1-2.276,2.836l-1.254,1.427a19.394,19.394,0,0,1-1.427,1.5,44,44,0,0,1-13.367,8.97,79.088,79.088,0,0,1-23.977,6.076c-3.761.444-7.484.617-11.13.714s-7.291,0-10.879-.193-7.137-.5-10.667-.926-6.963-.984-10.706-1.736l.617-20.157a309.258,309.258,0,0,0,36.457-8.68,79.924,79.924,0,0,0,7.832-3.009,35.937,35.937,0,0,0,6.211-3.376,8.641,8.641,0,0,0,2.816-2.739l.559-.887a12.6,12.6,0,0,0,.714-1.177,14.573,14.573,0,0,0,.752-1.37c.251-.5.521-.964.772-1.524A101.449,101.449,0,0,0,332.8,243.3c1.582-5.671,3.067-11.574,4.263-17.688s2.353-12.287,3.414-18.518l1.466-9.375,1.331-9.124Z"
                transform="translate(-125.881 -66.695)" fill="#5dc98c" opacity="0.2" />
            <path id="Trazado_96" data-name="Trazado 96"
                d="M270.613,230.74a629.884,629.884,0,0,1,16.068,125.65H399.619c.617-13.946-1.736-92.589-13.1-149.4a39.35,39.35,0,0,0-47.066-30.863l-.54.135c-14.1,3.2-34.335,8.372-46.294,12.9l-.482.193a35.357,35.357,0,0,0-21.527,41.375Z"
                transform="translate(-126.727 -79.129)" fill="#5dc98c" />
            <path id="Trazado_97" data-name="Trazado 97"
                d="M273.93,233.3c.887,5.42,1.794,11.168,2.623,17.187,9.24-9.645,12.172-39.2,12.172-39.2Z"
                transform="translate(-122.695 -45.617)" opacity="0.2" />
            <path id="Trazado_98" data-name="Trazado 98"
                d="M238.044,238.882l-25.635-2.392-.849,21.469a24.073,24.073,0,0,0,24-6.771Z"
                transform="translate(-180.632 -22.208)" fill="#ff8b7b" />
            <path id="Trazado_99" data-name="Trazado 99" d="M153.527,161.146,145.31,175.9l19.637.386L165.8,154.8Z"
                transform="translate(-133.941 59.462)" fill="#ff8b7b" />
            <path id="Trazado_100" data-name="Trazado 100"
                d="M357.914,208.159c-1.775,3.376-3.356,6.365-5.131,9.452s-3.472,6.1-5.3,9.085c-3.626,6.018-7.388,11.921-11.361,17.765a296.362,296.362,0,0,1-26.446,34.026,146.022,146.022,0,0,1-16.762,15.952c-.752.637-1.64,1.254-2.469,1.929a19.332,19.332,0,0,1-2.8,1.929c-1.234.714-2.276,1.427-3.395,2.045s-2.276,1.177-3.414,1.678a60.612,60.612,0,0,1-13.271,4.031,83.792,83.792,0,0,1-24.15.54,100.321,100.321,0,0,1-11.188-1.929q-2.758-.637-5.44-1.447c-1.929-.54-3.491-1.138-5.555-1.929l3.183-19.907c12.114-1.64,25.211-3.742,34.239-7.831a24.747,24.747,0,0,0,5.613-3.221,13.13,13.13,0,0,0,1.929-1.62c.135-.174.733-.694,1.177-1.119s.964-.829,1.447-1.331a137.671,137.671,0,0,0,11.574-13.02,377.06,377.06,0,0,0,21.739-31.171c3.472-5.459,6.848-11.014,10.223-16.589l4.977-8.372,4.8-8.237Z"
                transform="translate(-171.649 -66.444)" fill="#5dc98c" />
            <path id="Trazado_101" data-name="Trazado 101" d="M235.191,349.468h-21.1l-10.628-48.9h21.122Z"
                transform="translate(-79.924 194.872)" fill="#ff8b7b" />
            <path id="Trazado_102" data-name="Trazado 102"
                d="M277.945,405.26H301.67a1.929,1.929,0,0,1,1.794,1.427l4.167,18.788a3.086,3.086,0,0,1-3.086,3.742c-8.275-.135-12.307-.617-22.742-.617-6.423,0-14.66.656-23.514.656s-10.03-8.757-6.4-9.548c16.28-3.569,17.36-8.468,22.626-13.155a5.092,5.092,0,0,1,3.434-1.292Z"
                transform="translate(-144.957 134.567)" fill="#263238" />
            <g id="Grupo_1" data-name="Grupo 1" transform="translate(123.536 495.442)" opacity="0.2">
                <path id="Trazado_103" data-name="Trazado 103" d="M224.582,300.57H203.46l5.883,27.082,20.736-1.871Z"
                    transform="translate(-203.46 -300.57)" />
            </g>
            <path id="Trazado_104" data-name="Trazado 104"
                d="M316.3,150.817c7.716,19.521,13.078,30.574,7.986,44.751-7.716,21.315-35.087,23.475-48.4,6.616-11.959-15.181-22.414-44.558-7.311-60.7a28.567,28.567,0,0,1,47.722,9.336Z"
                transform="translate(-134.629 -118.993)" fill="#ff8b7b" />
            <path id="Trazado_105" data-name="Trazado 105"
                d="M281.047,186.468c-3.163,4.244-5.594,7.465-5.594,7.465s-6.5-16.145-4.012-23.552c-3.164-6.269-9.548,2.971-11.959-9.24s8.024-25.327,11.959-28.047a14.3,14.3,0,0,1,.54,4.379,54.01,54.01,0,0,1,37.807-11.94,13.06,13.06,0,0,0-2.122,5.671s22.9,3.858,28.1,16.82a24.749,24.749,0,0,0-5.787-1.929,27.95,27.95,0,0,1,4.629,20.678,212.577,212.577,0,0,0-2.585,31.885c.212,5.478-14.814,15.952-23.977,4.764S281.047,186.468,281.047,186.468Z"
                transform="translate(-136.448 -125.402)" fill="#263238" />
            <path id="Trazado_106" data-name="Trazado 106"
                d="M281.776,157.731a21.353,21.353,0,0,1-.965,13.7c-2.45,5.787-7.484,4.4-9.973-.656-2.257-4.533-3.7-12.943.289-16.975S280.271,152.272,281.776,157.731Z"
                transform="translate(-127.628 -100.869)" fill="#ff8b7b" />
            <path id="Trazado_107" data-name="Trazado 107"
                d="M344.873,269.1s-98.067,35.569-100.941,82.616c-5.324,86.667,30.111,155.279,30.111,155.279l32.483-3.472s-5.787-27.892-10.088-106.4c-5.42-98.665,162.03,2.315,127.541-128.023Z"
                transform="translate(-151.067 8.084)" fill="#98f9c5" />
            <path id="Trazado_108" data-name="Trazado 108"
                d="M344.873,269.1s-98.067,35.569-100.941,82.616c-5.324,86.667,30.111,155.279,30.111,155.279l32.483-3.472s-5.787-27.892-10.088-106.4c-5.42-98.665,162.03,2.315,127.541-128.023Z"
                transform="translate(-151.067 8.084)" fill="#fff" opacity="0.5" />
            <path id="Trazado_109" data-name="Trazado 109"
                d="M254.622,387.512c-.154,0,5.17,14.428,5.17,14.428l40.508-3.974-2.025-13.117Z"
                transform="translate(-140.634 115.608)" fill="#5dc98c" />
            <path id="Trazado_110" data-name="Trazado 110" d="M185.764,350.708H164.643l-6.173-48.9h21.122Z"
                transform="translate(-121.717 196.024)" fill="#ff8b7b" />
            <path id="Trazado_111" data-name="Trazado 111"
                d="M238.3,405.25h23.147a1.813,1.813,0,0,1,1.794,1.427l4.205,18.768a3.067,3.067,0,0,1-3.028,3.858c-8.314-.135-20.35-.6-30.863-.579-12.229,0-14.563.675-28.934.694-8.68,0-11.091-8.738-7.465-9.645,16.512-3.626,21.8-4.031,36.052-12.847a9.644,9.644,0,0,1,5.092-1.678Z"
                transform="translate(-195.526 134.558)" fill="#263238" />
            <path id="Trazado_112" data-name="Trazado 112" d="M158.48,301.82l3.356,26.619,20.929-1.427L179.6,301.82Z"
                transform="translate(-121.707 196.034)" opacity="0.2" />
            <path id="Trazado_113" data-name="Trazado 113"
                d="M355,269.1s-160.68,14.255-158.944,94.961c1.794,83.947,33.158,140.561,33.158,140.561h31.364s-5.941-43.555-4.88-126.191c.309-24.748,50.345-32.927,99.186-35.82,42.205-2.508,81.709-26.561,98.105-65.584l3.376-7.928Z"
                transform="translate(-195.046 8.084)" fill="#8cddae" />
            <path id="Trazado_114" data-name="Trazado 114"
                d="M355,269.1s-160.68,14.255-158.944,94.961c1.794,83.947,33.158,140.561,33.158,140.561h31.364s-5.941-43.555-4.88-126.191c.309-24.748,50.345-32.927,99.186-35.82,42.205-2.508,81.709-26.561,98.105-65.584l3.376-7.928Z"
                transform="translate(-195.046 8.084)" fill="#fff" opacity="0.5" />
            <path id="Trazado_115" data-name="Trazado 115"
                d="M209.431,387.471c-.135,0,5.382,14.505,5.382,14.505l37.884-2.72-2.218-13.117Z"
                transform="translate(-182.612 116.806)" fill="#5dc98c" />
            <path id="Trazado_116" data-name="Trazado 116"
                d="M313.91,227.9,293.521,306.47A245.167,245.167,0,0,0,285.69,368.1v36.515c0,9.22,6.79,16.7,15.181,16.7H405.38c8.391,0,15.181-7.484,15.181-16.7V368.1a245.188,245.188,0,0,1,7.851-61.629l18-69.441c2.778-10.667-4.514-21.218-14.6-21.218H328.493A15.431,15.431,0,0,0,313.91,227.9Z"
                transform="translate(-111.771 -41.418)" fill="#263238" />
            <path id="Trazado_117" data-name="Trazado 117"
                d="M233.1,312.8l3.414,19.482c1.813,10.243,10.821,18.556,20.138,18.556H372.834c9.317,0,15.431-8.314,13.618-18.556L383.038,312.8c-2.064-11.67-12.307-21.122-22.916-21.122H248.669C237.982,291.68,231.058,301.132,233.1,312.8Z"
                transform="translate(-160.953 29.059)" fill="#263238" />
            <path id="Trazado_118" data-name="Trazado 118" d="M287.229,260.239H226.371L220.43,240.66h72.74Z"
                transform="translate(-64.16 139.22)" fill="#5dc98c" />
            <rect id="Rectángulo_22" data-name="Rectángulo 22" width="21.739" height="145.461"
                transform="translate(181.77 399.459)" fill="#5dc98c" />
            <path id="Trazado_119" data-name="Trazado 119" d="M255.389,394.589H233.65V252.62l21.739,2.2Z"
                transform="translate(-51.88 150.33)" fill="#fff" opacity="0.7" />
            <path id="Trazado_120" data-name="Trazado 120" d="M244.669,394.041H239.48V253.21l5.189.54Z"
                transform="translate(-46.464 150.878)" fill="#fff" opacity="0.7" />
            <path id="Trazado_121" data-name="Trazado 121"
                d="M370.791,431.692h-100a2.778,2.778,0,0,1-1.62-5.015L285.031,415.1a44.519,44.519,0,0,1,26.272-8.6h19a44.5,44.5,0,0,1,26.253,8.6l15.875,11.574a2.778,2.778,0,0,1-1.64,5.015Z"
                transform="translate(-128.163 135.719)" fill="#5dc98c" />
        </g>
    </g>
</svg>