<svg xmlns="http://www.w3.org/2000/svg" width="883.844" height="618.41" viewBox="0 0 883.844 618.41">
    <g id="Grupo_10" data-name="Grupo 10" transform="translate(0 -0.01)">
        <path id="Trazado_180" data-name="Trazado 180"
            d="M433.931,94.484C398,80.821,360.038,69.408,321.282,70.842c-56.985,2.1-111.687,34.167-138.476,81.246C160.077,191.978,157.273,238.732,147.482,283c-12.049,54.531-35.169,106.372-59.855,157.055C74.372,467.284,60.382,495.1,58.205,524.945c-3.016,41.438,18.155,82.73,51.36,110.293s77.3,42.107,121.56,45.278c23.552,1.688,48.164.122,69.083-10.133,22.134-10.851,38.267-30.457,60.491-41.153,20.593-9.913,44.683-11.3,67.8-10.011a321.729,321.729,0,0,1,88.518,17.609c32.316,11.348,62.366,27.791,94.567,39.3s68.268,17.935,101.22,8.332c30.979-9.025,55.436-30.938,77.488-53.129a941.733,941.733,0,0,0,98.823-116.9c19.9-27.889,38.422-57.311,47.219-89.815,16.826-62.145-6.326-132.256-57.678-174.7-42.547-35.161-99.646-50.422-155.539-59.683-50.969-8.446-109.9-8.968-156.819-30.979C521.561,138.246,480.848,112.338,433.931,94.484Z"
            transform="translate(-57.92 -70.71)" fill="#5dc98c" opacity="0.1" />
        <path id="Trazado_181" data-name="Trazado 181" d="M632.58,618.507v29.618H641l-1.63-31.794Z"
            transform="translate(-116.878 -113.874)" fill="#aaabb0" />
        <path id="Trazado_182" data-name="Trazado 182" d="M477.41,611.177v29.618h8.43L484.209,609Z"
            transform="translate(-88.208 -112.519)" fill="#aaabb0" />
        <rect id="Rectángulo_51" data-name="Rectángulo 51" width="10.867" height="52.721" rx="5.434"
            transform="translate(525.485 449.743)" fill="#aaabb0" />
        <rect id="Rectángulo_52" data-name="Rectángulo 52" width="10.867" height="64.404" rx="5.434"
            transform="translate(386.08 438.053)" fill="#aaabb0" />
        <path id="Trazado_183" data-name="Trazado 183"
            d="M732.84,234.914s10.867-4.622,12.5,0,2.446,44.569,2.446,44.569H737.454Z"
            transform="translate(-182.621 -100.668)" fill="#aaabb0" />
        <path id="Trazado_184" data-name="Trazado 184"
            d="M583.451,234.914s-10.875-4.622-12.506,0-2.446,44.569-2.446,44.569h10.329Z"
            transform="translate(-152.257 -100.668)" fill="#aaabb0" />
        <path id="Trazado_185" data-name="Trazado 185" d="M530.54,115.815l-1.63,33.156h7.337V115Z"
            transform="translate(-97.723 -21.246)" fill="#aaabb0" />
        <path id="Trazado_186" data-name="Trazado 186"
            d="M581.17,277.406l2.177-47.83s-.815-10.6,25-7.337,101.366,9.783,101.366,9.783v45.384Z"
            transform="translate(-154.598 -98.59)" fill="#33323d" />
        <path id="Trazado_187" data-name="Trazado 187"
            d="M676.922,598.557l-4.076,73.094s-59.789,33.156-132.345,1.63l6.522-76.9Z"
            transform="translate(-147.083 -167.833)" fill="#33323d" />
        <path id="Trazado_188" data-name="Trazado 188" d="M580.25,171.882l1.353,47.284H665.85l-4.891-62.5Z"
            transform="translate(-107.209 -28.945)" fill="#444053" />
        <rect id="Rectángulo_53" data-name="Rectángulo 53" width="79.355" height="100.543"
            transform="translate(402.246 399.468)" fill="#498172" />
        <path id="Trazado_189" data-name="Trazado 189"
            d="M612.833,609.517s11.413-8.968,13.313-6.253-6.783,14.405-10.321,13.044S612.833,609.517,612.833,609.517Z"
            transform="translate(-160.442 -169.01)" fill="#ffb9b9" />
        <rect id="Rectángulo_54" data-name="Rectángulo 54" width="520.911" height="260.876"
            transform="translate(248.248 176.093)" fill="#504f60" />
        <path id="Trazado_190" data-name="Trazado 190"
            d="M581.089,169.778s-4.076-38.047,0-42.661,72.556-48.376,135.875,2.984c0,0,5.976.277,4.891,13.859a163.05,163.05,0,0,0,.13,25.819S585.712,179.561,581.089,169.778Z"
            transform="translate(-154.248 -77.108)" fill="#33323d" />
        <path id="Trazado_191" data-name="Trazado 191"
            d="M581.089,169.778s-4.076-38.047,0-42.661,72.556-48.376,135.875,2.984c0,0,5.976.277,4.891,13.859a163.05,163.05,0,0,0,.13,25.819S585.712,179.561,581.089,169.778Z"
            transform="translate(-154.248 -77.108)" opacity="0.1" />
        <path id="Trazado_192" data-name="Trazado 192"
            d="M581.089,175.778s-4.076-38.047,0-42.661,72.556-48.376,135.875,2.984c0,0,5.976.277,4.891,13.859a163.05,163.05,0,0,0,.13,25.819S585.712,185.561,581.089,175.778Z"
            transform="translate(-154.248 -78.217)" fill="#33323d" />
        <path id="Trazado_193" data-name="Trazado 193"
            d="M748.678,169.05s4.345,16.3,2.992,19.019-1.109,10.329-1.109,10.329.293,4.891-1.883,5.429-4.076.815-2.315,2.446,0,4.076,0,4.076-.954,3.807,0,6.253-5.576,3.465-5.022,6.522,2.38,11.682,0,11.96.815,10.867-1.329,10.867-3.668,19.019-3.668,19.019-15.082-12.767-25.134-9.237c0,0,.815-10.6,4.076-14.405s2.275-13.582,2.275-13.582L733.735,179.1Z"
            transform="translate(-178.624 -88.878)" fill="#498172" />
        <path id="Trazado_194" data-name="Trazado 194"
            d="M652.261,431.756c-3.53,3.9-7.337-16.949-7.337-16.949s-10.052,13.859-16.574,4.622c-4.516-6.4-.954-24.53,1.63-35.055,1.158-4.679,2.136-7.859,2.136-7.859l14.674-2.446s.049,3.2.375,7.076c.44,5.242,1.394,11.748,3.424,13.3C654.169,397.149,655.8,427.819,652.261,431.756Z"
            transform="translate(-162.915 -126.758)" fill="#ae6e79" />
        <path id="Trazado_195" data-name="Trazado 195"
            d="M639.569,143.656s-25.55-.269-31.794,13.313-6.522,18.212-8.968,20.381,26.626,13.59,26.626,13.59l1.361,46.738a15.531,15.531,0,0,1,14.943-3.163c9.237,2.617,20.927,0,20.927,0s-.546-.986,7.068,0,31.794-11.78,31.794-11.78.4-20.446-.139-24.8,17.25-36.343,17.25-36.343,13.859-13.313-.538-17.935c0,0-5.1-7.68-18.2-7.606S639.569,143.656,639.569,143.656Z"
            transform="translate(-157.829 -82.78)" opacity="0.1" />
        <path id="Trazado_196" data-name="Trazado 196"
            d="M639.569,142.656s-25.55-.269-31.794,13.313-6.522,18.212-8.968,20.381,26.626,13.59,26.626,13.59l1.361,46.738a15.531,15.531,0,0,1,14.943-3.163c9.237,2.617,20.927,0,20.927,0s-.546-.986,7.068,0,31.794-11.78,31.794-11.78,9.506-15.49,8.968-19.835,19.019-37.232,19.019-37.232,2.992-17.389-11.413-22.011c0,0-5.1-7.68-18.2-7.606S639.569,142.656,639.569,142.656Z"
            transform="translate(-157.829 -82.596)" fill="#498172" />
        <path id="Trazado_197" data-name="Trazado 197"
            d="M648.105,381.124c-5.6-1.745-14.389,2.1-17.185,3.261,1.158-4.679,2.136-7.859,2.136-7.859l14.674-2.446S647.755,377.276,648.105,381.124Z"
            transform="translate(-163.79 -126.76)" opacity="0.1" />
        <path id="Trazado_198" data-name="Trazado 198"
            d="M606.551,185.71h-7.875s-1.63,16.582,0,21.473,2.446,4.182,1.9,7.8,3.807,9.163,3.807,9.163.538,13.663,3.261,18.75-2.992,27.9-2.992,27.9a32.823,32.823,0,0,0,6.791,10.6c4.622,4.614,7.068,21.734,5.707,28.256s3.807,8.968,3.807,8.968,2.177,30.441,2.992,30.441,16.574-8.152,21.465-1.092l-3.807-27.987.277-54.075s-5.169-6.8-2.446-12.775-2.177-20.112-2.177-20.112L630.193,201.5Z"
            transform="translate(-157.698 -91.956)" fill="#498172" />
        <path id="Trazado_199" data-name="Trazado 199"
            d="M544.648,712.464s-11.413-2.446-11.682,0-13.59,27.449,2.992,34.786,60.866,23.1,132.883,2.715c0,0,4.614,1.63,3.53-8.421s-1.084-21.2-1.084-21.2-10.875-2.992-19.028-1.9S573.181,733.937,544.648,712.464Z"
            transform="translate(-144.709 -189.08)" fill="#33323d" />
        <path id="Trazado_200" data-name="Trazado 200"
            d="M544.648,712.464s-11.413-2.446-11.682,0-13.59,27.449,2.992,34.786,60.866,23.1,132.883,2.715c0,0,4.614,1.63,3.53-8.421s-1.084-21.2-1.084-21.2-10.875-2.992-19.028-1.9S573.181,733.937,544.648,712.464Z"
            transform="translate(-144.709 -189.08)" opacity="0.1" />
        <path id="Trazado_201" data-name="Trazado 201"
            d="M544.648,708.464s-11.413-2.446-11.682,0-13.59,27.449,2.992,34.786,60.866,23.1,132.883,2.715c0,0,4.614,1.63,3.53-8.421s-1.084-21.2-1.084-21.2-10.875-2.992-19.028-1.9S573.181,729.937,544.648,708.464Z"
            transform="translate(-144.709 -188.341)" fill="#33323d" />
        <path id="Trazado_202" data-name="Trazado 202"
            d="M629.56,197.32c-.7,3.986-2.291,7.818-2.535,11.854s1.313,8.625,5.038,10.207a16.983,16.983,0,0,1,3.008,1.223c1.435.97,2.022,2.8,2.323,4.508a24.618,24.618,0,0,1,.285,6.7c-.2,2.25-.685,4.671.424,6.636,1.948,3.481,7.027,2.967,10.892,1.989l-1.329,10.3a1.957,1.957,0,0,0,2.38,2.715c3.359-.212,6.815-.677,9.693-2.446s5.022-5.063,4.476-8.381c-.636-3.848-4.614-6.905-4.076-10.769.416-2.992,3.342-4.891,5.266-7.19,3.481-4.207,3.669-10.6.938-15.359a17.475,17.475,0,0,0-13.435-8.25c-3.008-.3-6.139.065-8.968-.978a6.8,6.8,0,0,1-4.158-4.386"
            transform="translate(-163.065 -93.8)" fill="#444053" />
        <path id="Trazado_203" data-name="Trazado 203"
            d="M513.84,635.795l2.845-6.2s15.359-14.307,18.889-15.31,17.935-5.372,20.112-5.372,41.854-2.177,41.854-2.177l4.614,10.875L552.36,628.548l-16.786,12.229Z"
            transform="translate(-142.157 -169.747)" fill="#767d9f" />
        <path id="Trazado_204" data-name="Trazado 204"
            d="M653.829,432.775l-2.6,20.014-1,7.7-11.682,1.63s-1.264-2.707-3.049-6.864c-5.421-12.62-15.628-38.642-9.709-43.134,7.867-5.984,9.783,13.859,9.783,13.859l8.968-4.353Z"
            transform="translate(-162.51 -133.581)" fill="#ffb9b9" />
        <rect id="Rectángulo_55" data-name="Rectángulo 55" width="58.999" height="89.13"
            transform="translate(430.371 336.425)" fill="#fff" />
        <rect id="Rectángulo_56" data-name="Rectángulo 56" width="58.999" height="89.13"
            transform="translate(430.371 336.425)" opacity="0.1" />
        <rect id="Rectángulo_57" data-name="Rectángulo 57" width="58.999" height="89.13"
            transform="translate(457.523 332.626) rotate(8.41)" fill="#fff" />
        <rect id="Rectángulo_58" data-name="Rectángulo 58" width="30.368" height="45.873"
            transform="translate(463.017 341.035) rotate(8.41)" fill="#5dc98c" />
        <rect id="Rectángulo_59" data-name="Rectángulo 59" width="36.792" height="9.962"
            transform="translate(453.087 399.329) rotate(8.41)" fill="#5dc98c" />
        <circle id="Elipse_10" data-name="Elipse 10" cx="34.101" cy="34.101" r="34.101"
            transform="translate(470.734 43.348)" opacity="0.1" />
        <circle id="Elipse_11" data-name="Elipse 11" cx="34.101" cy="34.101" r="34.101"
            transform="translate(470.734 42.533)" fill="#ae6e79" />
        <path id="Trazado_205" data-name="Trazado 205"
            d="M638.285,176.643a3.881,3.881,0,0,1,.236-2.633c1.3-2.7,4.989-2.935,7.981-2.8,7.036.326,14.756.367,20.259-4.076,2.283-1.826,4.834-6.416,8.152-5.544,2.951.774,4.182,4.777,7.256,5.666,2.226.644,4.533-.383,6.8-.815,3.261-.644,6.6-.106,9.913-.082s6.905-.6,9.163-3.025c3.049-3.261,2.552-8.356,2.283-12.824a69.042,69.042,0,0,1,1.166-17.234c1.109-5.641,2.813-11.951-.3-16.786-2.967-4.606-9.114-5.87-13.313-9.4-3.929-3.261-6.008-8.487-10.158-11.511-5.226-3.807-12.326-3.261-18.75-2.6L655.03,94.467c-3.6.383-7.337.815-10.3,2.959-5.34,3.864-6.073,11.894-11.128,16.125-2.25,1.875-5.128,2.8-7.7,4.207s-5.046,3.62-5.34,6.522c-.245,2.446,1.076,4.7,1.72,7.06,1.524,5.625-.856,11.413-2.38,17.079s-1.818,12.546,2.609,16.3c.9.766,1.94,1.353,2.813,2.152,2.992,2.731,3.4,7.337,2.707,11.315"
            transform="translate(-161.568 -74.736)" fill="#444053" />
        <ellipse id="Elipse_12" data-name="Elipse 12" cx="0.815" cy="2.038" rx="0.815" ry="2.038"
            transform="translate(506.8 115.154)" fill="#444053" />
        <ellipse id="Elipse_13" data-name="Elipse 13" cx="0.815" cy="2.038" rx="0.815" ry="2.038"
            transform="translate(506.8 123.649)" fill="#444053" />
        <path id="Trazado_206" data-name="Trazado 206"
            d="M656.6,440.433c.872-1,1.451-3.579,1.785-6.978L648.67,421.34S652.787,444.827,656.6,440.433Z"
            transform="translate(-167.069 -135.492)" fill="#ae6e79" />
        <path id="Trazado_207" data-name="Trazado 207"
            d="M641.346,678.031S625.4,702.683,575.58,700.042c-46.933-2.446-69.841-25.541-68.749-33.694s-2.992-28,7.06-33.7c5.829-3.3,13.5-1.345,18.914.889a10.68,10.68,0,0,0,11.226-2.014c4.948-4.459,14.177-9.481,28.745-5.527a10.354,10.354,0,0,0,5.707-.106c6.065-1.851,20.5-5.063,30.979,2.071a10.6,10.6,0,0,0,11.348.432l.147-.09c4.891-2.992,27.718,25.272,27.718,25.272S649.767,675.316,641.346,678.031Z"
            transform="translate(-140.856 -172.851)" opacity="0.1" />
        <path id="Trazado_208" data-name="Trazado 208"
            d="M641.346,679.031S625.4,703.683,575.58,701.042c-46.933-2.446-69.841-25.541-68.749-33.694s-2.992-28,7.06-33.7c5.829-3.3,13.5-1.345,18.914.889a10.68,10.68,0,0,0,11.226-2.014c4.948-4.459,14.177-9.481,28.745-5.527a10.354,10.354,0,0,0,5.707-.106c6.065-1.851,20.5-5.063,30.979,2.071a10.6,10.6,0,0,0,11.348.432l.147-.09c4.891-2.992,27.718,25.272,27.718,25.272S649.767,676.316,641.346,679.031Z"
            transform="translate(-140.856 -173.036)" fill="#767d9f" />
        <circle id="Elipse_14" data-name="Elipse 14" cx="32.479" cy="32.479" r="32.479"
            transform="translate(402.246 450.689)" opacity="0.1" />
        <circle id="Elipse_15" data-name="Elipse 15" cx="32.479" cy="32.479" r="32.479"
            transform="translate(402.246 451.504)" fill="#ffb9b9" />
        <path id="Trazado_209" data-name="Trazado 209"
            d="M573.679,629.766c-3.408.921-6.766,2.682-8.43,5.576-1,1.745-1.353,3.84-2.8,5.291-2.054,2.063-5.519,2.1-8.3,3.261s-4.614,5.234-1.891,6.522c-2.837.147-4.94,2.764-5.291,5.364s.636,5.193,1.59,7.671c3.114,8.022,6.465,16.394,13.329,22.1,11.185,9.31,28.044,8.878,43.069,7.891a7.044,7.044,0,0,0,3.53-.815c1.63-1.076,1.834-3.139,2.1-4.949,1.133-7.728,5.323-14.748,8.063-22.125s3.864-16.044-.75-22.574C611.106,633.3,585.109,626.668,573.679,629.766Z"
            transform="translate(-148.264 -173.859)" fill="#b96b6b" />
        <path id="Trazado_210" data-name="Trazado 210"
            d="M653.834,462.158l-1,7.7-11.682,1.63s-1.264-2.707-3.049-6.864l15.547-2.919Z"
            transform="translate(-165.116 -142.951)" opacity="0.1" />
        <path id="Trazado_211" data-name="Trazado 211"
            d="M665.676,632.556l6.8-7.883L671.114,581.2a70.531,70.531,0,0,0,1.361-9.514c.269-4.622-3.4-14.943-3.4-14.943a32.373,32.373,0,0,1,2.307-5.984c1.63-3.261-2.3-10.6-2.3-10.6s-5.853-19.019-3.408-28.533-.6-14.943-.6-14.943-2.389-10.6-2.12-14.943-5.438-8.43-5.438-8.43l-4.345-10.6-17.389,3.261v36.686s1.084,35.055,0,41.854,2.168,13.313,2.168,13.313-1.9,10.052-.269,13.859,4.891,13.044,4.891,13.044a21.2,21.2,0,0,0,.546,9.913c1.63,4.761,0,7.476,0,7.476Z"
            transform="translate(-164.648 -143.135)" fill="#767d9f" />
        <g id="Grupo_6" data-name="Grupo 6" transform="translate(457.359 47.188)" opacity="0.1">
            <path id="Trazado_212" data-name="Trazado 212"
                d="M732.228,137.264A69.022,69.022,0,0,0,731,151.751a69.338,69.338,0,0,1,1.264-12.033c.717-3.62,1.63-7.516,1.435-11.128A67.682,67.682,0,0,1,732.228,137.264Z"
                transform="translate(-639.636 -128.59)" />
            <path id="Trazado_213" data-name="Trazado 213"
                d="M625.363,178.173c-.872-.815-1.916-1.386-2.813-2.16-2.38-2.03-3.383-4.973-3.579-8.152-.236,4.076.6,8.022,3.579,10.6.9.774,1.94,1.361,2.813,2.16a9.962,9.962,0,0,1,2.951,6.807C628.55,184,627.857,180.439,625.363,178.173Z"
                transform="translate(-618.933 -135.846)" />
            <path id="Trazado_214" data-name="Trazado 214"
                d="M623.134,140.829a15.365,15.365,0,0,0-.44-5.128c-.473-1.745-1.321-3.448-1.63-5.2a5.424,5.424,0,0,1-.09.587c-.236,2.446,1.084,4.7,1.72,7.06A13.858,13.858,0,0,1,623.134,140.829Z"
                transform="translate(-619.305 -128.943)" />
            <path id="Trazado_215" data-name="Trazado 215"
                d="M710.155,174.474c-2.258,2.446-5.853,3.049-9.163,3.025s-6.66-.563-9.913.09c-2.266.457-4.573,1.476-6.8.815-3.073-.889-4.3-4.891-7.247-5.666-3.351-.88-5.9,3.709-8.152,5.535-5.5,4.4-13.223,4.362-20.259,4.076-2.992-.139-6.685.1-7.973,2.8a3.783,3.783,0,0,0-.236,2.633l-9.962,1.565a19.318,19.318,0,0,1-.269,2.446l10.231-1.63a3.783,3.783,0,0,1,.236-2.633c1.288-2.707,4.981-2.943,7.973-2.8,7.035.326,14.756.367,20.259-4.076,2.283-1.826,4.834-6.416,8.152-5.535,2.943.766,4.174,4.777,7.247,5.666,2.226.636,4.533-.383,6.8-.815,3.261-.652,6.6-.114,9.913-.09s6.905-.6,9.163-3.025,2.584-6.033,2.446-9.555C712.5,170.031,711.94,172.558,710.155,174.474Z"
                transform="translate(-621.011 -135.742)" />
        </g>
        <g id="Grupo_7" data-name="Grupo 7" transform="translate(464.09 117.632)" opacity="0.1">
            <path id="Trazado_216" data-name="Trazado 216"
                d="M634.136,222.94a16.49,16.49,0,0,0-3.008-1.223,7.785,7.785,0,0,1-3.938-4.027c.611,2.813,2.16,5.372,4.753,6.473a16.491,16.491,0,0,1,3.008,1.223,4.516,4.516,0,0,1,1.443,1.688A6.291,6.291,0,0,0,634.136,222.94Z"
                transform="translate(-627.19 -215.497)" />
            <path id="Trazado_217" data-name="Trazado 217"
                d="M650.358,248.066c-3.758.954-8.666,1.451-10.728-1.736a5.6,5.6,0,0,0,.652,2.193c1.761,3.139,6.065,3.033,9.726,2.258Z"
                transform="translate(-629.489 -220.789)" />
            <path id="Trazado_218" data-name="Trazado 218"
                d="M667.861,251.2c.522,3.31-1.63,6.612-4.484,8.348s-6.334,2.217-9.693,2.446a3.326,3.326,0,0,1-1.582-.179,1.94,1.94,0,0,0,2.4,2.625c3.359-.212,6.815-.677,9.693-2.446s5.03-5.063,4.476-8.381a9.246,9.246,0,0,0-.807-2.413Z"
                transform="translate(-631.762 -221.688)" />
            <path id="Trazado_219" data-name="Trazado 219"
                d="M674.154,215a13.418,13.418,0,0,1-2.446,11.536c-1.924,2.332-4.851,4.2-5.266,7.19a6.791,6.791,0,0,0,.815,3.97,5.3,5.3,0,0,1,0-1.524c.416-2.992,3.342-4.891,5.266-7.19A13.715,13.715,0,0,0,674.154,215Z"
                transform="translate(-634.436 -215)" />
        </g>
        <g id="Grupo_8" data-name="Grupo 8" transform="translate(398.625 454.777)" opacity="0.1">
            <path id="Trazado_220" data-name="Trazado 220"
                d="M555.071,645.068c2.772-1.149,6.237-1.19,8.3-3.261,1.451-1.451,1.8-3.546,2.8-5.283,1.63-2.9,5.014-4.655,8.421-5.576,11.413-3.1,37.436,3.522,44.218,13.117a17.813,17.813,0,0,1,3.114,9.848,18.408,18.408,0,0,0-3.106-11.47c-6.783-9.6-32.781-16.215-44.218-13.117-3.408.921-6.766,2.674-8.421,5.576-1,1.736-1.353,3.832-2.8,5.283-2.063,2.063-5.527,2.1-8.3,3.261-2.111.872-3.677,3.448-3.106,5.177a5.609,5.609,0,0,1,3.1-3.554Z"
                transform="translate(-547.806 -628.555)" />
            <path id="Trazado_221" data-name="Trazado 221"
                d="M546.979,661.808c.342-2.609,2.446-5.218,5.291-5.364a2.168,2.168,0,0,1-1.247-1.394,6.335,6.335,0,0,0-4.076,5.128,8.618,8.618,0,0,0,0,2A1.4,1.4,0,0,0,546.979,661.808Z"
                transform="translate(-546.889 -633.45)" />
        </g>
        <rect id="Rectángulo_60" data-name="Rectángulo 60" width="74.187" height="96.744"
            transform="translate(497.221 187.702)" fill="#fff" />
        <rect id="Rectángulo_61" data-name="Rectángulo 61" width="74.187" height="96.744"
            transform="translate(497.221 187.702)" opacity="0.1" />
        <rect id="Rectángulo_62" data-name="Rectángulo 62" width="74.187" height="96.744"
            transform="translate(526.641 205.956) rotate(-9.76)" fill="#fff" />
        <rect id="Rectángulo_63" data-name="Rectángulo 63" width="17.43" height="22.729"
            transform="translate(544.361 270.952) rotate(-9.76)" fill="#5dc98c" />
        <rect id="Rectángulo_64" data-name="Rectángulo 64" width="17.43" height="22.729"
            transform="translate(568.13 266.859) rotate(-9.76)" fill="#5dc98c" />
        <rect id="Rectángulo_65" data-name="Rectángulo 65" width="61.122" height="22.831"
            transform="translate(541.863 241.429) rotate(-9.744)" fill="#5dc98c" />
        <rect id="Rectángulo_66" data-name="Rectángulo 66" width="61.122" height="5.094"
            transform="translate(536.842 214.573) rotate(-9.744)" fill="#5dc98c" />
        <rect id="Rectángulo_67" data-name="Rectángulo 67" width="61.122" height="5.094"
            transform="translate(538.817 223.808) rotate(-9.744)" fill="#5dc98c" />
        <path id="Trazado_222" data-name="Trazado 222"
            d="M714.062,268.71s-34.1,34.24-16.981,42.939,28.264-28.941,28.264-28.941l2.707-8.56Z"
            transform="translate(-175.125 -107.291)" fill="#ae6e79" />
        <path id="Trazado_223" data-name="Trazado 223"
            d="M714.385,263.884l-4.215,9.31s20.789,2.919,25.134,9.2l-2.576-16.427-3.057-7.011Z"
            transform="translate(-178.432 -105.49)" opacity="0.1" />
        <path id="Trazado_224" data-name="Trazado 224"
            d="M715.385,262.884l-4.215,9.31s20.788,2.919,25.134,9.2l-2.576-16.427-3.057-7.011Z"
            transform="translate(-178.617 -105.305)" fill="#498172" />
        <path id="Trazado_225" data-name="Trazado 225" d="M812.678,403.26l-.448.31.62.277.669-.057.081-.465Z"
            transform="translate(-150.071 -74.506)" fill="#464a5f" />
        <path id="Trazado_226" data-name="Trazado 226" d="M812.678,403.26l-.448.31.62.277.669-.057.081-.465Z"
            transform="translate(-150.071 -74.506)" opacity="0.1" />
        <path id="Trazado_227" data-name="Trazado 227" d="M812.6,403.131l-.457.293-.359-.44.22-.359.2-.065Z"
            transform="translate(-149.987 -74.377)" fill="#9c9ca1" />
        <path id="Trazado_228" data-name="Trazado 228" d="M812.6,403.131l-.457.293-.359-.44.22-.359.2-.065Z"
            transform="translate(-149.987 -74.377)" opacity="0.1" />
        <path id="Trazado_229" data-name="Trazado 229"
            d="M943.059,393.545l-33.376-48.2a3.97,3.97,0,0,0-5.527-1.019l-74.4,51.066a3.986,3.986,0,0,0-1.035,5.535l33.286,48.816Z"
            transform="translate(-200.208 -121.132)" fill="#9c9ca1" />
        <path id="Trazado_230" data-name="Trazado 230"
            d="M943.059,393.545l-33.376-48.2a3.97,3.97,0,0,0-5.527-1.019l-74.4,51.066a3.986,3.986,0,0,0-1.035,5.535l33.286,48.816Z"
            transform="translate(-200.208 -121.132)" opacity="0.1" />
        <path id="Trazado_231" data-name="Trazado 231"
            d="M944.059,393.684l-33.376-48.2a3.978,3.978,0,0,0-5.535-1.019l-74.39,51.1a4,4,0,0,0-1.044,5.535L863,449.936Z"
            transform="translate(-200.392 -121.157)" fill="#9c9ca1" />
        <path id="Trazado_232" data-name="Trazado 232"
            d="M979.7,414.672l-27.718-8.9L870.91,461.964l28.158,9.212a4.264,4.264,0,0,0,3.775-.571l77.081-54.425a.815.815,0,0,0-.228-1.508Z"
            transform="translate(-208.131 -132.615)" fill="#464a5f" />
        <path id="Trazado_233" data-name="Trazado 233"
            d="M979.7,414.672l-27.718-8.9L870.91,461.964l28.158,9.212a4.264,4.264,0,0,0,3.775-.571l77.081-54.425a.815.815,0,0,0-.228-1.508Z"
            transform="translate(-208.131 -132.615)" opacity="0.1" />
        <path id="Trazado_234" data-name="Trazado 234"
            d="M979.485,413.98l-27.718-8.911L870.7,461.264l28.158,9.2a4.231,4.231,0,0,0,3.775-.563l77.081-54.425a.815.815,0,0,0-.228-1.492Z"
            transform="translate(-208.092 -132.486)" fill="#464a5f" />
        <g id="Grupo_9" data-name="Grupo 9" transform="translate(650.229 250.182)" opacity="0.1">
            <path id="Trazado_235" data-name="Trazado 235"
                d="M952.587,401.618l-2.046-2.935a.815.815,0,0,0-1.109-.2l-3.041,2.03a.815.815,0,0,0-.22,1.1l1.883,2.894a.815.815,0,0,0,1.1.236l3.2-2.014A.815.815,0,0,0,952.587,401.618Z"
                transform="translate(-872.243 -381.425)" />
            <path id="Trazado_236" data-name="Trazado 236"
                d="M945.886,406.26l-2.054-2.927a.815.815,0,0,0-1.109-.2l-3.033,2.046a.815.815,0,0,0-.228,1.1l1.883,2.894a.815.815,0,0,0,1.1.245l3.212-2.014a.815.815,0,0,0,.228-1.141Z"
                transform="translate(-871.004 -382.284)" />
            <path id="Trazado_237" data-name="Trazado 237"
                d="M938.845,411.13,936.79,408.2a.815.815,0,0,0-1.109-.2l-3.041,2.046a.815.815,0,0,0-.22,1.109l1.883,2.894a.815.815,0,0,0,1.1.236l3.2-2.014a.815.815,0,0,0,.236-1.141Z"
                transform="translate(-869.702 -383.184)" />
            <path id="Trazado_238" data-name="Trazado 238"
                d="M931.717,416.069l-2.054-2.935a.815.815,0,0,0-1.1-.2l-3.041,2.054a.815.815,0,0,0-.22,1.1l1.883,2.894a.815.815,0,0,0,1.092.245l3.212-2.022a.815.815,0,0,0,.228-1.133Z"
                transform="translate(-868.387 -384.095)" />
            <path id="Trazado_239" data-name="Trazado 239"
                d="M924.6,421l-2.054-2.927a.815.815,0,0,0-1.109-.2l-3.033,2.046a.815.815,0,0,0-.228,1.1l1.883,2.894a.815.815,0,0,0,1.1.245l3.212-2.022A.815.815,0,0,0,924.6,421Z"
                transform="translate(-867.07 -385.007)" />
            <path id="Trazado_240" data-name="Trazado 240"
                d="M917.691,426.259l-2.552-3.636a.367.367,0,0,0-.514-.1l-3.734,2.519a.367.367,0,0,0-.106.514l2.34,3.6a.375.375,0,0,0,.514.114l3.946-2.446a.375.375,0,0,0,.106-.563Z"
                transform="translate(-865.716 -385.88)" />
            <path id="Trazado_241" data-name="Trazado 241"
                d="M910.567,431.189,908,427.553a.375.375,0,0,0-.522-.1l-3.734,2.519a.375.375,0,0,0-.1.514l2.34,3.6a.359.359,0,0,0,.514.114l3.938-2.446a.367.367,0,0,0,.13-.562Z"
                transform="translate(-864.397 -386.791)" />
            <path id="Trazado_242" data-name="Trazado 242"
                d="M904.261,435.568l-2.552-3.6a.375.375,0,0,0-.514-.09l-3.734,2.511a.383.383,0,0,0-.106.522l2.34,3.6a.383.383,0,0,0,.514.114l3.946-2.446a.375.375,0,0,0,.106-.6Z"
                transform="translate(-863.236 -387.608)" />
            <path id="Trazado_243" data-name="Trazado 243"
                d="M897.2,440.441l-2.552-3.636a.375.375,0,0,0-.514-.09l-3.734,2.511a.375.375,0,0,0-.106.522l2.34,3.6a.383.383,0,0,0,.514.114l3.946-2.446a.383.383,0,0,0,.106-.571Z"
                transform="translate(-861.93 -388.502)" />
            <path id="Trazado_244" data-name="Trazado 244"
                d="M890.361,445.139l-2.552-3.636a.367.367,0,0,0-.514-.1l-3.734,2.519a.367.367,0,0,0-.106.514l2.34,3.6a.375.375,0,0,0,.514.114l3.946-2.446a.375.375,0,0,0,.106-.563Z"
                transform="translate(-860.667 -389.369)" />
            <path id="Trazado_245" data-name="Trazado 245"
                d="M883.526,449.919,881,446.275a.375.375,0,0,0-.514-.09l-3.734,2.511a.375.375,0,0,0-.106.522l2.34,3.6a.383.383,0,0,0,.514.114l3.946-2.446a.375.375,0,0,0,.082-.563Z"
                transform="translate(-859.408 -390.252)" />
            <path id="Trazado_246" data-name="Trazado 246"
                d="M876.681,454.649l-2.552-3.636a.367.367,0,0,0-.514-.1l-3.734,2.5a.367.367,0,0,0-.106.514l2.34,3.6a.375.375,0,0,0,.514.114l3.946-2.446a.375.375,0,0,0,.106-.546Z"
                transform="translate(-858.139 -391.126)" />
            <path id="Trazado_247" data-name="Trazado 247"
                d="M948.092,395.108l-2.054-2.935a.815.815,0,0,0-1.109-.2l-3.008,2.054a.815.815,0,0,0-.228,1.1l1.883,2.894a.815.815,0,0,0,1.1.236l3.212-2.014a.815.815,0,0,0,.2-1.133Z"
                transform="translate(-871.416 -380.222)" />
            <path id="Trazado_248" data-name="Trazado 248"
                d="M938.236,380.875l-2.054-2.951a.815.815,0,0,0-1.1-.2l-3.041,2.046a.815.815,0,0,0-.228,1.1l1.883,2.894a.815.815,0,0,0,1.1.245l3.212-2.014A.815.815,0,0,0,938.236,380.875Z"
                transform="translate(-869.59 -377.59)" />
            <path id="Trazado_249" data-name="Trazado 249"
                d="M941.378,399.751l-2.054-2.927a.815.815,0,0,0-1.1-.2l-3.041,2.046a.815.815,0,0,0-.22,1.1l1.875,2.894a.815.815,0,0,0,1.1.245l3.212-2.014a.815.815,0,0,0,.228-1.141Z"
                transform="translate(-870.172 -381.082)" />
            <path id="Trazado_250" data-name="Trazado 250"
                d="M934.335,404.62l-2.054-2.927a.815.815,0,0,0-1.109-.2l-3.033,2.022a.815.815,0,0,0-.228,1.109l1.883,2.894a.815.815,0,0,0,1.1.236l3.212-2.014A.815.815,0,0,0,934.335,404.62Z"
                transform="translate(-868.869 -381.981)" />
            <path id="Trazado_251" data-name="Trazado 251"
                d="M927.207,409.558l-2.046-2.935a.815.815,0,0,0-1.109-.2l-3.041,2.079a.815.815,0,0,0-.22,1.1l1.883,2.894a.815.815,0,0,0,1.1.236l3.2-2.014a.815.815,0,0,0,.228-1.158Z"
                transform="translate(-867.553 -382.892)" />
            <path id="Trazado_252" data-name="Trazado 252"
                d="M931.686,385.751l-2.054-2.927a.815.815,0,0,0-1.1-.2l-3.041,2.046a.815.815,0,0,0-.228,1.1l1.883,2.894a.815.815,0,0,0,1.1.245l3.212-2.014a.815.815,0,0,0,.228-1.141Z"
                transform="translate(-868.38 -378.495)" />
            <path id="Trazado_253" data-name="Trazado 253"
                d="M924.646,390.628l-2.054-2.935a.815.815,0,0,0-1.109-.2l-3.033,2.022a.815.815,0,0,0-.228,1.1l1.883,2.894a.815.815,0,0,0,1.1.236l3.212-2.014A.815.815,0,0,0,924.646,390.628Z"
                transform="translate(-867.079 -379.394)" />
            <path id="Trazado_254" data-name="Trazado 254"
                d="M917.517,395.56l-2.054-2.927a.815.815,0,0,0-1.1-.212l-3.041,2.079a.815.815,0,0,0-.22,1.1l1.883,2.894a.815.815,0,0,0,1.1.245l3.2-2.022a.815.815,0,0,0,.228-1.158Z"
                transform="translate(-865.763 -380.306)" />
            <path id="Trazado_255" data-name="Trazado 255"
                d="M920.093,414.49l-2.054-2.927a.815.815,0,0,0-1.1-.212l-3.016,2.054a.815.815,0,0,0-.22,1.1l1.851,2.894a.815.815,0,0,0,1.092.245l3.212-2.022a.815.815,0,0,0,.236-1.133Z"
                transform="translate(-866.244 -383.804)" />
            <path id="Trazado_256" data-name="Trazado 256"
                d="M912.966,419.42l-2.054-2.927a.815.815,0,0,0-1.109-.2l-3.033,2.046a.815.815,0,0,0-.228,1.1l1.883,2.894a.815.815,0,0,0,1.1.245l3.212-2.014a.815.815,0,0,0,.228-1.141Z"
                transform="translate(-864.921 -384.715)" />
            <path id="Trazado_257" data-name="Trazado 257"
                d="M906.061,424.679l-2.552-3.636a.367.367,0,0,0-.514-.1l-3.734,2.519a.367.367,0,0,0-.106.514l2.34,3.6a.367.367,0,0,0,.514.114l3.946-2.446a.375.375,0,0,0,.106-.562Z"
                transform="translate(-863.568 -385.588)" />
            <path id="Trazado_258" data-name="Trazado 258"
                d="M899.753,429.049l-2.552-3.644a.375.375,0,0,0-.514-.09l-3.726,2.511a.383.383,0,0,0-.106.522l2.34,3.6a.383.383,0,0,0,.514.114l3.946-2.446a.359.359,0,0,0,.1-.563Z"
                transform="translate(-862.404 -386.396)" />
            <path id="Trazado_259" data-name="Trazado 259"
                d="M892.691,433.931l-2.552-3.636a.375.375,0,0,0-.514-.09l-3.734,2.511a.367.367,0,0,0-.106.514l2.34,3.6a.383.383,0,0,0,.514.114l3.946-2.446a.383.383,0,0,0,.106-.571Z"
                transform="translate(-861.097 -387.299)" />
            <path id="Trazado_260" data-name="Trazado 260"
                d="M885.851,438.669l-2.552-3.636a.367.367,0,0,0-.514-.1l-3.734,2.486a.367.367,0,0,0-.106.514l2.34,3.6a.375.375,0,0,0,.514.114l3.946-2.446a.375.375,0,0,0,.106-.53Z"
                transform="translate(-859.834 -388.173)" />
            <path id="Trazado_261" data-name="Trazado 261"
                d="M929.647,397.851l-2.054-2.927a.815.815,0,0,0-1.1-.2l-3.041,2.054a.815.815,0,0,0-.22,1.1l1.883,2.894a.815.815,0,0,0,1.092.236l3.212-2.014a.815.815,0,0,0,.228-1.141Z"
                transform="translate(-868.004 -380.731)" />
            <path id="Trazado_262" data-name="Trazado 262"
                d="M922.516,402.788l-2.054-2.935a.815.815,0,0,0-1.109-.2L916.32,401.7a.815.815,0,0,0-.228,1.1l1.883,2.894a.815.815,0,0,0,1.1.245l3.212-2.022a.815.815,0,0,0,.228-1.133Z"
                transform="translate(-866.686 -381.641)" />
            <path id="Trazado_263" data-name="Trazado 263"
                d="M915.406,407.72l-2.054-2.927a.815.815,0,0,0-1.109-.2l-3.041,2.046a.815.815,0,0,0-.22,1.1l1.883,2.894a.815.815,0,0,0,1.1.245l3.2-2.022a.815.815,0,0,0,.236-1.133Z"
                transform="translate(-865.371 -382.554)" />
            <path id="Trazado_264" data-name="Trazado 264"
                d="M908.277,412.651l-2.054-2.927a.815.815,0,0,0-1.1-.2l-3.041,2.046a.815.815,0,0,0-.22,1.1l1.883,2.927a.815.815,0,0,0,1.092.245l3.212-2.014a.815.815,0,0,0,.228-1.174Z"
                transform="translate(-864.056 -383.465)" />
            <path id="Trazado_265" data-name="Trazado 265"
                d="M901.422,417.909l-2.552-3.636a.367.367,0,0,0-.514-.1l-3.734,2.519a.375.375,0,0,0-.106.514l2.34,3.6a.367.367,0,0,0,.514.106l3.946-2.446a.375.375,0,0,0,.106-.563Z"
                transform="translate(-862.711 -384.337)" />
            <path id="Trazado_266" data-name="Trazado 266"
                d="M895.071,422.279l-2.552-3.644a.383.383,0,0,0-.522-.09l-3.726,2.511a.383.383,0,0,0-.106.522l2.34,3.6a.375.375,0,0,0,.514.114l3.946-2.446a.375.375,0,0,0,.106-.563Z"
                transform="translate(-861.538 -385.145)" />
            <path id="Trazado_267" data-name="Trazado 267"
                d="M888.01,427.139l-2.552-3.644a.383.383,0,0,0-.522-.09l-3.734,2.511a.391.391,0,0,0-.106.522l2.348,3.6a.375.375,0,0,0,.514.114L887.9,427.7a.367.367,0,0,0,.114-.563Z"
                transform="translate(-860.232 -386.043)" />
            <path id="Trazado_268" data-name="Trazado 268"
                d="M881.171,431.9l-2.552-3.636a.375.375,0,0,0-.522-.1l-3.734,2.519a.375.375,0,0,0-.1.514l2.34,3.6a.359.359,0,0,0,.514.114l3.938-2.446a.367.367,0,0,0,.114-.563Z"
                transform="translate(-858.969 -386.922)" />
            <path id="Trazado_269" data-name="Trazado 269"
                d="M879.011,443.4l-2.552-3.636a.375.375,0,0,0-.514-.09l-3.734,2.511a.367.367,0,0,0-.106.514l2.34,3.6a.383.383,0,0,0,.514.114l3.946-2.446a.383.383,0,0,0,.106-.571Z"
                transform="translate(-858.57 -389.049)" />
            <path id="Trazado_270" data-name="Trazado 270"
                d="M872.171,448.139l-2.552-3.636a.367.367,0,0,0-.514-.1l-3.734,2.519a.367.367,0,0,0-.106.514l2.34,3.6a.375.375,0,0,0,.514.114l3.946-2.446a.375.375,0,0,0,.106-.563Z"
                transform="translate(-857.306 -389.923)" />
            <path id="Trazado_271" data-name="Trazado 271"
                d="M882.93,419.837l-2.446-3.424a.505.505,0,0,0-.693-.122l-3.522,2.372a.5.5,0,0,0-.138.693l2.2,3.383a.489.489,0,0,0,.685.155l3.726-2.34a.505.505,0,0,0,.187-.717Z"
                transform="translate(-859.309 -384.724)" />
            <path id="Trazado_272" data-name="Trazado 272"
                d="M876.1,424.575l-2.4-3.424a.5.5,0,0,0-.693-.13l-3.522,2.413a.489.489,0,0,0-.139.685l2.2,3.391a.505.505,0,0,0,.685.155l3.726-2.34a.506.506,0,0,0,.147-.75Z"
                transform="translate(-858.055 -385.598)" />
            <path id="Trazado_273" data-name="Trazado 273"
                d="M869.259,429.315l-2.4-3.432a.505.505,0,0,0-.693-.122l-3.522,2.372a.5.5,0,0,0-.139.693l2.2,3.383a.489.489,0,0,0,.685.155l3.726-2.34a.5.5,0,0,0,.147-.709Z"
                transform="translate(-856.791 -386.474)" />
            <path id="Trazado_274" data-name="Trazado 274"
                d="M862.481,434.139l-2.552-3.644a.375.375,0,0,0-.514-.09l-3.734,2.511a.383.383,0,0,0-.106.522l2.34,3.6a.383.383,0,0,0,.514.114l3.946-2.446a.359.359,0,0,0,.106-.563Z"
                transform="translate(-855.516 -387.336)" />
            <path id="Trazado_275" data-name="Trazado 275"
                d="M942.217,388.063l-2.209-3.139a.815.815,0,0,0-1.109-.2l-8.625,6.041a.815.815,0,0,0-.212,1.092l2.079,3.212a.815.815,0,0,0,1.133.22l8.756-6.122A.815.815,0,0,0,942.217,388.063Z"
                transform="translate(-869.266 -378.884)" />
            <path id="Trazado_276" data-name="Trazado 276"
                d="M873.012,436.447l-2.707-3.823a.367.367,0,0,0-.522-.09l-9.31,6.522a.367.367,0,0,0-.1.505l2.543,3.938a.375.375,0,0,0,.53.106l9.465-6.628A.383.383,0,0,0,873.012,436.447Z"
                transform="translate(-856.403 -387.728)" />
            <path id="Trazado_277" data-name="Trazado 277"
                d="M906.815,400.616l-2.495-3.652a.375.375,0,0,0-.514-.1l-20.674,13.957a.375.375,0,0,0-.106.514l2.552,3.913a.375.375,0,0,0,.53.106l20.609-14.218a.375.375,0,0,0,.1-.522Z"
                transform="translate(-860.588 -381.14)" />
        </g>
        <path id="Trazado_278" data-name="Trazado 278"
            d="M953.256,401.738,951.2,398.8a.815.815,0,0,0-1.109-.2l-3.033,2.054a.815.815,0,0,0-.228,1.1l1.883,2.894a.815.815,0,0,0,1.1.245l3.212-2.022a.815.815,0,0,0,.228-1.133Z"
            transform="translate(-222.136 -131.265)" fill="#464a5f" />
        <path id="Trazado_279" data-name="Trazado 279"
            d="M946.516,406.381l-2.054-2.927a.815.815,0,0,0-1.1-.2L940.32,405.3a.815.815,0,0,0-.228,1.1l1.883,2.894a.815.815,0,0,0,1.1.245l3.212-2.014a.815.815,0,0,0,.228-1.141Z"
            transform="translate(-220.891 -132.125)" fill="#464a5f" />
        <path id="Trazado_280" data-name="Trazado 280"
            d="M939.516,411.26l-2.054-2.927a.815.815,0,0,0-1.109-.2l-3.033,2.054a.815.815,0,0,0-.228,1.1l1.883,2.894a.815.815,0,0,0,1.1.236l3.212-2.014a.815.815,0,0,0,.228-1.141Z"
            transform="translate(-219.597 -133.026)" fill="#464a5f" />
        <path id="Trazado_281" data-name="Trazado 281"
            d="M932.375,416.189l-2.054-2.935a.815.815,0,0,0-1.1-.2l-3.041,2.054a.815.815,0,0,0-.212,1.141l1.883,2.894a.815.815,0,0,0,1.1.245l3.2-2.022a.815.815,0,0,0,.22-1.174Z"
            transform="translate(-218.276 -133.936)" fill="#464a5f" />
        <path id="Trazado_282" data-name="Trazado 282"
            d="M925.257,421.121l-2.054-2.927a.815.815,0,0,0-1.1-.2l-3.041,2.046a.815.815,0,0,0-.22,1.1l1.875,2.894a.815.815,0,0,0,1.1.245l3.212-2.022a.815.815,0,0,0,.228-1.133Z"
            transform="translate(-216.964 -134.849)" fill="#464a5f" />
        <path id="Trazado_283" data-name="Trazado 283"
            d="M918.351,426.379l-2.552-3.636a.367.367,0,0,0-.514-.1l-3.734,2.519a.367.367,0,0,0-.106.514l2.34,3.6a.375.375,0,0,0,.514.114l3.946-2.446a.375.375,0,0,0,.106-.563Z"
            transform="translate(-215.609 -135.721)" fill="#464a5f" />
        <path id="Trazado_284" data-name="Trazado 284"
            d="M911.231,431.309l-2.552-3.636a.375.375,0,0,0-.522-.1l-3.726,2.519a.367.367,0,0,0-.106.514l2.34,3.6a.367.367,0,0,0,.514.106l3.946-2.446a.383.383,0,0,0,.106-.563Z"
            transform="translate(-214.293 -136.632)" fill="#464a5f" />
        <path id="Trazado_285" data-name="Trazado 285"
            d="M904.921,435.679l-2.552-3.644a.375.375,0,0,0-.514-.09l-3.734,2.478a.383.383,0,0,0-.106.522l2.34,3.6a.383.383,0,0,0,.514.114l3.946-2.446a.375.375,0,0,0,.106-.53Z"
            transform="translate(-213.128 -137.439)" fill="#464a5f" />
        <path id="Trazado_286" data-name="Trazado 286"
            d="M897.861,440.577l-2.552-3.612a.375.375,0,0,0-.514-.09l-3.734,2.511a.375.375,0,0,0-.106.522l2.34,3.6a.383.383,0,0,0,.514.114l3.946-2.446a.375.375,0,0,0,.106-.6Z"
            transform="translate(-211.823 -138.35)" fill="#464a5f" />
        <path id="Trazado_287" data-name="Trazado 287"
            d="M891.021,445.3l-2.552-3.636a.367.367,0,0,0-.514-.1l-3.734,2.519a.367.367,0,0,0-.106.514l2.34,3.6a.367.367,0,0,0,.514.114l3.946-2.446a.375.375,0,0,0,.106-.563Z"
            transform="translate(-210.559 -139.217)" fill="#464a5f" />
        <path id="Trazado_288" data-name="Trazado 288"
            d="M884.181,450.039l-2.552-3.644a.375.375,0,0,0-.514-.09l-3.734,2.511a.383.383,0,0,0-.106.522l2.34,3.6a.383.383,0,0,0,.514.114l3.946-2.446a.375.375,0,0,0,.106-.563Z"
            transform="translate(-209.296 -140.093)" fill="#464a5f" />
        <path id="Trazado_289" data-name="Trazado 289"
            d="M877.341,454.769l-2.552-3.636a.367.367,0,0,0-.514-.1l-3.734,2.519a.367.367,0,0,0-.106.514l2.34,3.6a.367.367,0,0,0,.514.114l3.946-2.446a.375.375,0,0,0,.106-.562Z"
            transform="translate(-208.032 -140.966)" fill="#464a5f" />
        <path id="Trazado_290" data-name="Trazado 290"
            d="M948.747,395.259l-2.054-2.935a.815.815,0,0,0-1.1-.2l-3.041,2.054a.815.815,0,0,0-.22,1.1l1.875,2.894a.815.815,0,0,0,1.1.245l3.212-2.022a.815.815,0,0,0,.228-1.133Z"
            transform="translate(-221.304 -130.069)" fill="#464a5f" />
        <path id="Trazado_291" data-name="Trazado 291"
            d="M938.9,381l-2.054-2.927a.815.815,0,0,0-1.1-.2l-3.041,2.046a.815.815,0,0,0-.22,1.1l1.883,2.894a.815.815,0,0,0,1.092.245l3.212-2.014A.815.815,0,0,0,938.9,381Z"
            transform="translate(-219.484 -127.436)" fill="#464a5f" />
        <path id="Trazado_292" data-name="Trazado 292"
            d="M942.037,399.867l-2.054-2.943a.815.815,0,0,0-1.1-.2l-3.041,2.046a.815.815,0,0,0-.22,1.1l1.883,2.894a.815.815,0,0,0,1.092.245l3.212-2.014a.815.815,0,0,0,.228-1.125Z"
            transform="translate(-220.064 -130.919)" fill="#464a5f" />
        <path id="Trazado_293" data-name="Trazado 293"
            d="M935,404.741l-2.022-2.927a.815.815,0,0,0-1.1-.2l-3.041,2.046a.815.815,0,0,0-.22,1.109l1.875,2.894a.815.815,0,0,0,1.1.236l3.212-2.014a.815.815,0,0,0,.2-1.141Z"
            transform="translate(-218.77 -131.822)" fill="#464a5f" />
        <path id="Trazado_294" data-name="Trazado 294"
            d="M927.876,409.678l-2.054-2.935a.815.815,0,0,0-1.109-.2l-3.033,2.054a.815.815,0,0,0-.228,1.1l1.883,2.894a.815.815,0,0,0,1.1.245l3.212-2.022a.815.815,0,0,0,.228-1.133Z"
            transform="translate(-217.447 -132.732)" fill="#464a5f" />
        <path id="Trazado_295" data-name="Trazado 295"
            d="M932.347,385.867l-2.054-2.943a.815.815,0,0,0-1.1-.2l-3.041,2.046a.815.815,0,0,0-.22,1.1l1.883,2.894a.815.815,0,0,0,1.092.245l3.212-2.014A.815.815,0,0,0,932.347,385.867Z"
            transform="translate(-218.274 -128.332)" fill="#464a5f" />
        <path id="Trazado_296" data-name="Trazado 296"
            d="M925.306,390.749l-2.054-2.935a.815.815,0,0,0-1.1-.2l-3.041,2.054a.815.815,0,0,0-.228,1.1l1.883,2.894a.815.815,0,0,0,1.1.245l3.212-2.022a.815.815,0,0,0,.228-1.133Z"
            transform="translate(-216.972 -129.236)" fill="#464a5f" />
        <path id="Trazado_297" data-name="Trazado 297"
            d="M918.186,395.68l-2.054-2.927a.815.815,0,0,0-1.109-.2L911.99,394.6a.815.815,0,0,0-.228,1.1l1.883,2.9a.815.815,0,0,0,1.1.245l3.2-2.022a.815.815,0,0,0,.236-1.141Z"
            transform="translate(-215.656 -130.148)" fill="#464a5f" />
        <path id="Trazado_298" data-name="Trazado 298"
            d="M920.747,414.611l-2.054-2.927a.815.815,0,0,0-1.1-.2l-3.041,2.03a.815.815,0,0,0-.22,1.1l1.883,2.894a.815.815,0,0,0,1.092.245l3.212-2.022A.815.815,0,0,0,920.747,414.611Z"
            transform="translate(-216.131 -133.646)" fill="#464a5f" />
        <path id="Trazado_299" data-name="Trazado 299"
            d="M913.626,419.541l-2.054-2.927a.815.815,0,0,0-1.1-.2L907.43,418.5a.815.815,0,0,0-.228,1.1l1.883,2.894a.815.815,0,0,0,1.1.245l3.212-2.014a.815.815,0,0,0,.228-1.182Z"
            transform="translate(-214.814 -134.557)" fill="#464a5f" />
        <path id="Trazado_300" data-name="Trazado 300"
            d="M906.728,424.8l-2.552-3.636a.367.367,0,0,0-.514-.1l-3.7,2.519a.367.367,0,0,0-.106.514l2.34,3.6a.367.367,0,0,0,.514.114l3.946-2.446a.383.383,0,0,0,.073-.563Z"
            transform="translate(-213.468 -135.429)" fill="#464a5f" />
        <path id="Trazado_301" data-name="Trazado 301"
            d="M900.42,429.139l-2.552-3.644a.383.383,0,0,0-.522-.09l-3.734,2.511a.391.391,0,0,0-.106.522l2.348,3.6a.375.375,0,0,0,.514.114l3.938-2.446a.367.367,0,0,0,.114-.563Z"
            transform="translate(-212.296 -136.231)" fill="#464a5f" />
        <path id="Trazado_302" data-name="Trazado 302"
            d="M893.351,434.059l-2.552-3.644a.375.375,0,0,0-.514-.09l-3.734,2.511a.383.383,0,0,0-.106.522l2.34,3.6a.383.383,0,0,0,.514.114l3.946-2.446a.359.359,0,0,0,.106-.563Z"
            transform="translate(-210.99 -137.14)" fill="#464a5f" />
        <path id="Trazado_303" data-name="Trazado 303"
            d="M886.527,438.789,884,435.153a.367.367,0,0,0-.514-.1l-3.734,2.519a.375.375,0,0,0-.106.514l2.34,3.6a.375.375,0,0,0,.514.114l3.946-2.446a.367.367,0,0,0,.081-.563Z"
            transform="translate(-209.734 -138.014)" fill="#464a5f" />
        <path id="Trazado_304" data-name="Trazado 304"
            d="M930.307,397.978l-2.046-2.935a.815.815,0,0,0-1.109-.2l-3.041,2.054a.815.815,0,0,0-.22,1.1l1.883,2.894a.815.815,0,0,0,1.1.236l3.2-2.014a.815.815,0,0,0,.228-1.133Z"
            transform="translate(-217.897 -130.571)" fill="#464a5f" />
        <path id="Trazado_305" data-name="Trazado 305"
            d="M923.188,402.91l-2.054-2.927a.815.815,0,0,0-1.1-.212l-3.041,2.054a.815.815,0,0,0-.22,1.1l1.883,2.894a.815.815,0,0,0,1.092.245l3.212-2.022a.815.815,0,0,0,.228-1.133Z"
            transform="translate(-216.581 -131.483)" fill="#464a5f" />
        <path id="Trazado_306" data-name="Trazado 306"
            d="M916.075,407.842,914,404.923a.815.815,0,0,0-1.109-.2l-2.967,2.038a.815.815,0,0,0-.228,1.1l1.883,2.894a.815.815,0,0,0,1.1.245l3.212-2.014a.815.815,0,0,0,.188-1.141Z"
            transform="translate(-215.274 -132.396)" fill="#464a5f" />
        <path id="Trazado_307" data-name="Trazado 307"
            d="M908.937,412.771l-2.054-2.927a.815.815,0,0,0-1.1-.2l-3.041,2.046a.815.815,0,0,0-.22,1.1l1.883,2.894a.815.815,0,0,0,1.092.245l3.212-2.014a.815.815,0,0,0,.228-1.141Z"
            transform="translate(-213.948 -133.306)" fill="#464a5f" />
        <path id="Trazado_308" data-name="Trazado 308"
            d="M902.04,418.029l-2.552-3.636a.375.375,0,0,0-.522-.1l-3.734,2.519a.375.375,0,0,0-.106.514l2.34,3.6a.375.375,0,0,0,.522.106l3.938-2.446a.375.375,0,0,0,.114-.563Z"
            transform="translate(-212.594 -134.178)" fill="#464a5f" />
        <path id="Trazado_309" data-name="Trazado 309"
            d="M895.737,422.4l-2.552-3.636a.367.367,0,0,0-.514-.1l-3.709,2.511a.383.383,0,0,0-.106.522l2.34,3.6a.383.383,0,0,0,.514.114l3.946-2.446a.375.375,0,0,0,.081-.562Z"
            transform="translate(-211.436 -134.986)" fill="#464a5f" />
        <path id="Trazado_310" data-name="Trazado 310"
            d="M888.671,427.289l-2.552-3.644a.383.383,0,0,0-.522-.09l-3.726,2.511a.383.383,0,0,0-.106.522l2.34,3.6a.375.375,0,0,0,.514.114l3.946-2.446a.375.375,0,0,0,.106-.563Z"
            transform="translate(-210.126 -135.889)" fill="#464a5f" />
        <path id="Trazado_311" data-name="Trazado 311"
            d="M881.831,432.019l-2.552-3.636a.375.375,0,0,0-.522-.1l-3.726,2.519a.367.367,0,0,0-.106.514l2.34,3.6a.367.367,0,0,0,.514.106l3.946-2.446a.383.383,0,0,0,.106-.563Z"
            transform="translate(-208.861 -136.763)" fill="#464a5f" />
        <path id="Trazado_312" data-name="Trazado 312"
            d="M879.68,443.529l-2.552-3.644a.383.383,0,0,0-.522-.09l-3.734,2.511a.383.383,0,0,0-.106.522l2.34,3.6a.383.383,0,0,0,.514.114l3.946-2.446a.367.367,0,0,0,.114-.563Z"
            transform="translate(-208.463 -138.89)" fill="#464a5f" />
        <path id="Trazado_313" data-name="Trazado 313"
            d="M872.84,448.259l-2.552-3.636a.375.375,0,0,0-.522-.1l-3.734,2.519a.375.375,0,0,0-.106.514l2.34,3.6a.375.375,0,0,0,.522.114l3.938-2.446a.367.367,0,0,0,.114-.562Z"
            transform="translate(-207.199 -139.763)" fill="#464a5f" />
        <path id="Trazado_314" data-name="Trazado 314"
            d="M883.594,419.965l-2.4-3.432a.506.506,0,0,0-.693-.122l-3.546,2.372a.505.505,0,0,0-.139.693l2.2,3.391a.505.505,0,0,0,.693.147l3.717-2.34a.5.5,0,0,0,.171-.709Z"
            transform="translate(-209.206 -134.565)" fill="#464a5f" />
        <path id="Trazado_315" data-name="Trazado 315"
            d="M876.76,424.695l-2.4-3.424a.5.5,0,0,0-.693-.13l-3.522,2.381a.5.5,0,0,0-.139.685l2.2,3.391a.514.514,0,0,0,.693.155l3.726-2.34a.514.514,0,0,0,.138-.717Z"
            transform="translate(-207.948 -135.439)" fill="#464a5f" />
        <path id="Trazado_316" data-name="Trazado 316"
            d="M869.91,429.435,867.465,426a.5.5,0,0,0-.685-.122l-3.53,2.372a.505.505,0,0,0-.138.693l2.2,3.391a.506.506,0,0,0,.693.147l3.726-2.34a.5.5,0,0,0,.179-.709Z"
            transform="translate(-206.675 -136.315)" fill="#464a5f" />
        <path id="Trazado_317" data-name="Trazado 317"
            d="M863.151,434.269l-2.552-3.644a.383.383,0,0,0-.522-.09l-3.734,2.511a.383.383,0,0,0-.1.522l2.34,3.6a.375.375,0,0,0,.514.114l3.946-2.446a.375.375,0,0,0,.106-.563Z"
            transform="translate(-205.41 -137.179)" fill="#464a5f" />
        <path id="Trazado_318" data-name="Trazado 318"
            d="M942.883,388.211l-2.177-3.147a.815.815,0,0,0-1.109-.2l-8.674,6.041a.815.815,0,0,0-.212,1.092l2.087,3.212a.815.815,0,0,0,1.133.22l8.747-6.122A.815.815,0,0,0,942.883,388.211Z"
            transform="translate(-219.157 -128.728)" fill="#464a5f" />
        <path id="Trazado_319" data-name="Trazado 319"
            d="M873.672,436.567l-2.707-3.823a.367.367,0,0,0-.522-.09l-9.31,6.522a.375.375,0,0,0-.1.514l2.552,3.929a.375.375,0,0,0,.53.106l9.465-6.628A.383.383,0,0,0,873.672,436.567Z"
            transform="translate(-206.295 -137.569)" fill="#464a5f" />
        <path id="Trazado_320" data-name="Trazado 320"
            d="M907.485,400.74l-2.446-3.628a.383.383,0,0,0-.522-.106l-20.666,13.941a.367.367,0,0,0-.106.514l2.544,3.913a.375.375,0,0,0,.53.106l20.609-14.218A.375.375,0,0,0,907.485,400.74Z"
            transform="translate(-210.491 -130.985)" fill="#464a5f" />
        <path id="Trazado_321" data-name="Trazado 321"
            d="M902.806,382.5l-10.989-15.97a2.038,2.038,0,0,0-2.821-.538l-30.27,20.324a2.046,2.046,0,0,0-.546,2.845l11.2,16.427a2.038,2.038,0,0,0,2.845.538l30.058-20.8a2.03,2.03,0,0,0,.522-2.829Z"
            transform="translate(-205.714 -125.201)" opacity="0.1" />
        <path id="Trazado_322" data-name="Trazado 322"
            d="M903.433,382.62l-10.989-15.97a2.046,2.046,0,0,0-2.821-.538l-30.229,20.34a2.038,2.038,0,0,0-.554,2.845l11.169,16.411a2.038,2.038,0,0,0,2.845.538l30.074-20.8a2.03,2.03,0,0,0,.505-2.829Z"
            transform="translate(-205.835 -125.224)" fill="#939498" />
        <path id="Trazado_323" data-name="Trazado 323"
            d="M974.977,416.337l-23.316-7.777L876.88,460.507l23.145,7.541a4.239,4.239,0,0,0,3.742-.554l71.423-49.664a.815.815,0,0,0-.212-1.492Z"
            transform="translate(-209.234 -133.131)" fill="#5dc98c" />
    </g>
</svg>