<svg id="Grupo_4" data-name="Grupo 4" xmlns="http://www.w3.org/2000/svg" width="852.182" height="617.73"
    viewBox="0 0 852.182 617.73">
    <rect id="Rectángulo_25" data-name="Rectángulo 25" width="104" height="60" transform="translate(688.013 555.912)"
        fill="#30c592" />
    <path id="Trazado_145" data-name="Trazado 145"
        d="M752.362,743.166c-.933,3.175-1.366,6.878.572,9.561a9.655,9.655,0,0,0,4.086,2.993,29.112,29.112,0,0,0,12.985,1.905,6.131,6.131,0,0,0,4.593-1.764,56.587,56.587,0,0,0,19.575-33.393,3.166,3.166,0,0,0-.1-2.049,3.247,3.247,0,0,0-1.364-1.156,30.654,30.654,0,0,0-7.31-3.338C771.317,712.29,755.85,731.3,752.362,743.166Z"
        transform="translate(-173.909 -141.135)" fill="#2f2e41" />
    <path id="Trazado_146" data-name="Trazado 146"
        d="M900,698.668a20.733,20.733,0,0,0,6.844,5.212,9.608,9.608,0,0,0,8.364-.142c3.873-2.2,4.97-7.328,4.661-11.775-.572-8.223-4.5-15.633-9.014-22.351-1.428-2.125-4.59-8.451-7.365-8.529-1.318-.037-6.248,4.742-7.587,5.652-4.894,3.323-8.283,5.7-7.265,12.08C889.778,685.93,895.216,693.545,900,698.668Z"
        transform="translate(-173.909 -141.135)" fill="#2f2e41" />
    <path id="Trazado_147" data-name="Trazado 147"
        d="M857.1,358.558c-20.833-1.615-40.732-1.017-61.6-2.088-1.753-.09-.908,19.986-2.725,30.888-.934,5.6-32.348,333.837-28.449,334.5a259.053,259.053,0,0,0,30.331,4.492c4.133.364,42.663-213.506,40.817-230.887,5.045,7.4,22.812,41.559,31.8,80.854,11.854,51.846,15.344,110.489,22.712,107.2A44.138,44.138,0,0,1,908.589,668.8c12.178-4.53-7.558-253.924-28.41-265.389-.257-7.3-.524-14.778-3.275-21.544C873.023,372.322,865.368,364.7,857.1,358.558Z"
        transform="translate(-173.909 -141.135)" fill="#2f2e41" />
    <path id="Trazado_148" data-name="Trazado 148" d="M851.787,617.73H277.706v-2.182H852.182Z" fill="#3f3d56" />
    <rect id="Rectángulo_26" data-name="Rectángulo 26" width="471.013" height="92.995" transform="translate(0 294.368)"
        fill="#e6e6e6" />
    <rect id="Rectángulo_27" data-name="Rectángulo 27" width="471.013" height="92.995" transform="translate(0 147.426)"
        fill="#e6e6e6" />
    <rect id="Rectángulo_28" data-name="Rectángulo 28" width="471.013" height="92.995" fill="#e6e6e6" />
    <path id="Trazado_149" data-name="Trazado 149" d="M183.95,224.089H634.881V151.176H183.95Z"
        transform="translate(-173.909 -141.135)" fill="#fff" />
    <path id="Trazado_150" data-name="Trazado 150" d="M183.95,371.839H634.881V298.927H183.95Z"
        transform="translate(-173.909 -141.135)" fill="#fff" />
    <path id="Trazado_151" data-name="Trazado 151" d="M183.95,518.457H634.881V445.545H183.95Z"
        transform="translate(-173.909 -141.135)" fill="#fff" />
    <circle id="Elipse_1" data-name="Elipse 1" cx="27.778" cy="27.778" r="27.778" transform="translate(21.739 18.116)"
        fill="#30c592" />
    <rect id="Rectángulo_29" data-name="Rectángulo 29" width="274.154" height="6.039"
        transform="translate(115.942 35.024)" fill="#30c592" />
    <rect id="Rectángulo_30" data-name="Rectángulo 30" width="274.154" height="6.039"
        transform="translate(115.942 50.724)" fill="#30c592" />
    <circle id="Elipse_2" data-name="Elipse 2" cx="27.778" cy="27.778" r="27.778" transform="translate(21.739 166.749)"
        fill="#ccc" />
    <rect id="Rectángulo_31" data-name="Rectángulo 31" width="274.154" height="6.039"
        transform="translate(115.942 183.658)" fill="#ccc" />
    <rect id="Rectángulo_32" data-name="Rectángulo 32" width="274.154" height="6.039"
        transform="translate(115.942 199.358)" fill="#ccc" />
    <circle id="Elipse_3" data-name="Elipse 3" cx="27.778" cy="27.778" r="27.778" transform="translate(21.739 313.692)"
        fill="#ccc" />
    <rect id="Rectángulo_33" data-name="Rectángulo 33" width="274.154" height="6.039"
        transform="translate(115.942 330.6)" fill="#ccc" />
    <rect id="Rectángulo_34" data-name="Rectángulo 34" width="274.154" height="6.039"
        transform="translate(115.942 346.301)" fill="#ccc" />
    <path id="Trazado_152" data-name="Trazado 152"
        d="M851.966,199.351c-10.812-18.27-32.2-19.121-32.2-19.121s-20.845-2.666-34.217,25.16c-12.464,25.935-29.665,50.976-2.769,57.048l4.858-15.121,3.008,16.247a105.241,105.241,0,0,0,11.508.2c28.8-.93,56.234.272,55.351-10.064C856.327,239.955,862.369,216.93,851.966,199.351Z"
        transform="translate(-173.909 -141.135)" fill="#2f2e41" />
    <path id="Trazado_153" data-name="Trazado 153"
        d="M812.077,261.6c.052,2.056.037,4.225-.985,6.011-2.026,3.539-6.971,4.069-9.946,6.859-3.128,2.934-3.482,7.695-3.631,11.98-.156,4.481-.288,9.109,1.347,13.284a32.292,32.292,0,0,0,3.773,6.482q2.724,3.927,5.5,7.819a33.762,33.762,0,0,0,3.293,4.132c3.313,3.374,7.857,5.242,12.394,6.575,2.931.861,6.1,1.532,9,.6a17.24,17.24,0,0,0,5.237-3.22,28.06,28.06,0,0,0,5.927-5.745c2.442-3.543,3.118-7.978,3.625-12.251a264.36,264.36,0,0,0,1.743-38.084,9.333,9.333,0,0,0-.727-4.046c-1.506-2.941-5.541-3.569-7.666-6.1-1.817-2.163-1.892-5.25-1.876-8.075l.039-7.192a3.013,3.013,0,0,0-.349-1.752,2.968,2.968,0,0,0-2.063-.963A69.55,69.55,0,0,0,823.182,237c-3.672.112-10.718-.2-13.893,1.85-2.882,1.856.726,6.984,1.394,9.864a64.266,64.266,0,0,1,1.394,12.883Z"
        transform="translate(-173.909 -141.135)" fill="#ffb8b8" />
    <circle id="Elipse_4" data-name="Elipse 4" cx="29.071" cy="29.071" r="29.071" transform="translate(617.525 49.97)"
        fill="#ffb8b8" />
    <path id="Trazado_154" data-name="Trazado 154"
        d="M813.922,283.047c-15-47.548-22.909,19.237-32.369,37.473.088,12.573.429,47.347,3.369,60.527,11.423,51.2,67.99,47.182,85,4,9.061-23-11.04-80.012-10.359-106.612C834.653,253.194,833.116,333.272,813.922,283.047Z"
        transform="translate(-173.909 -141.135)" fill="#5dc98c" />
    <path id="Trazado_155" data-name="Trazado 155"
        d="M797.452,266.738c-32.511,15.8-17,58.255-28.785,86.039-9.412,38.119-33.348,50.105,21.38,50.993,11.792-34.842.274-72.689,16.352-108.167,1.107-13.9,5.873-19.121,5.451-30.888C808.7,259.831,800.53,265.225,797.452,266.738Z"
        transform="translate(-173.909 -141.135)" fill="#578870" />
    <path id="Trazado_156" data-name="Trazado 156"
        d="M673.276,56.455,652.142,45.384l-29.185,4.529-6.038,26.67L631.95,76l4.2-9.8v9.636l6.935-.266,4.027-15.6,2.515,16.606,24.657-.5Z"
        fill="#2f2e41" />
    <path id="Trazado_157" data-name="Trazado 157"
        d="M834.113,280.12c16.734-1.953.419-22.049,13.7-21.707,39.771-6.689,51.669,17.944,36.544,52.324-13.865,27.538,35.18,66.221,7.781,81.63-9.724,3.569-23.647,14.8-33.151,9.909C843.732,363.928,843.18,320.113,834.113,280.12Z"
        transform="translate(-173.909 -141.135)" fill="#578870" />
    <path id="Trazado_158" data-name="Trazado 158"
        d="M880.688,389.6c-5.826,2.786-10.435,7.217-14.335,12.365-.826,1.09.282,3.122,2.756,3.089,2.3-.031,3.677-2.983,5.98-3.014a99.968,99.968,0,0,0,3.806,18.145c4.593-4.033,7.343-9.711,9.974-15.228l5.2-10.905c1.909-4,3.82-8.009,5.541-12.1a8.727,8.727,0,0,0,.853-3.049c.227-7.035-6.71-7.078-9.7-2.675C887.49,381.042,886.471,386.829,880.688,389.6Z"
        transform="translate(-173.909 -141.135)" fill="#ffb8b8" />
    <path id="Trazado_159" data-name="Trazado 159"
        d="M881.884,268.643c4.447,4.621,8.926,9.281,12.378,14.686s21.31,54.014,22.034,55.045c2.578,3.8-.433,13.64-.585,14.2-.3,1.766-4.024,19.4-4.957,23.3-.653,2.725-.645,5.563-1.072,8.333s-1.389,5.618-3.523,7.435a2.208,2.208,0,0,1-.97.543c-1.183.231-1.989-1.138-2.4-2.27-1.29-3.526-2.592-7.12-4.866-10.106s-5.721-5.326-9.475-5.315a5.055,5.055,0,0,1,.367-4.613c.752-1.419,1.855-2.621,2.685-4a18.388,18.388,0,0,0,2.112-6.036,39.606,39.606,0,0,0-5.229-28.25,27.049,27.049,0,0,0-4.364-5.455c-1.833-1.718-3.978-3.1-5.67-4.955a19.373,19.373,0,0,1-4.512-10.947,57.718,57.718,0,0,1,.318-12.01c.761-7.9,1.739-15.813,2.868-23.67a8.826,8.826,0,0,1,.783-2.956C878.689,269.954,880.187,269.44,881.884,268.643Z"
        transform="translate(-173.909 -141.135)" fill="#578870" />
    <path id="Trazado_160" data-name="Trazado 160"
        d="M784.824,377.8c-2.991-4.4-9.928-4.36-9.7,2.675a8.729,8.729,0,0,0,.853,3.049c1.721,4.088,3.632,8.094,5.541,12.1l5.2,10.905c2.631,5.517,5.381,11.194,9.974,15.228a99.979,99.979,0,0,0,3.806-18.145c2.3.031,3.677,2.983,5.98,3.014,2.474.033,3.581-2,2.756-3.089-3.9-5.148-8.509-9.579-14.335-12.365C789.115,388.408,788.1,382.62,784.824,377.8Z"
        transform="translate(-173.909 -141.135)" fill="#ffb8b8" />
    <path id="Trazado_161" data-name="Trazado 161"
        d="M797.784,273.186a8.829,8.829,0,0,1,.783,2.956c1.129,7.857,2.107,15.77,2.868,23.671a57.722,57.722,0,0,1,.318,12.01,19.374,19.374,0,0,1-4.512,10.947c-1.692,1.857-3.837,3.238-5.67,4.955a27.05,27.05,0,0,0-4.364,5.454,39.606,39.606,0,0,0-5.229,28.25,18.39,18.39,0,0,0,2.112,6.036c.83,1.375,1.932,2.577,2.685,4a5.055,5.055,0,0,1,.368,4.613c-3.754-.011-7.2,2.328-9.475,5.315s-3.576,6.581-4.866,10.106c-.414,1.132-1.22,2.5-2.4,2.27a2.207,2.207,0,0,1-.97-.543c-2.133-1.817-3.1-4.666-3.523-7.435s-.419-5.607-1.072-8.333c-.933-3.895-4.659-21.531-4.957-23.3-.152-.563-3.164-10.4-.585-14.2.724-1.031,18.581-49.64,22.034-55.045s7.931-10.065,12.378-14.686C795.4,271.019,796.9,271.533,797.784,273.186Z"
        transform="translate(-173.909 -141.135)" fill="#578870" />
</svg>